<svg width="20" height="20" viewBox="0 0 20 20" fill="none" xmlns="http://www.w3.org/2000/svg">
<path d="M13.6987 3.00291L11.7799 3C9.62416 3 8.23102 4.35233 8.23102 6.44542L8.23102 8.03399H6.30172C6.135 8.03399 6 8.16187 6 8.3196V10.6213C6 10.779 6.13516 10.9067 6.30172 10.9067H8.23102L8.23102 16.7145C8.23102 16.8723 8.36603 17 8.53274 17H11.0499C11.2166 17 11.3517 16.8721 11.3517 16.7145V10.9067H13.6075C13.7742 10.9067 13.9092 10.779 13.9092 10.6213L13.9101 8.3196C13.9101 8.24386 13.8782 8.17133 13.8217 8.11773C13.7652 8.06414 13.6883 8.03399 13.6082 8.03399H11.3517L11.3517 6.68734C11.3517 6.04008 11.5147 5.71151 12.4058 5.71151L13.6984 5.71107C13.865 5.71107 14 5.58319 14 5.4256V3.28838C14 3.13094 13.8652 3.0032 13.6987 3.00291Z" fill="#FF2E53"/>
</svg>
