<svg width="152" height="17" viewBox="0 0 152 17" fill="none" xmlns="http://www.w3.org/2000/svg">
<path d="M13.5977 1V16H11.3224V6.76493L7.20515 12.306H6.44671L2.32948 6.70896V16H0V1H0.812611L6.82593 9.28358L12.7851 1H13.5977Z" fill="white"/>
<path d="M34.743 13.5373H28.2962L27.2669 16H24.8291L31.1133 1H31.8717L38.2101 16H35.7181L34.743 13.5373ZM31.4925 5.42164L29.1089 11.5224H33.8762L31.4925 5.42164Z" fill="white"/>
<path d="M49.418 1.75L54.6593 7" stroke="white" stroke-width="3"/>
<path d="M62.8955 15.25L57.6542 10" stroke="white" stroke-width="3"/>
<path d="M62.8955 1.75L57.6542 7" stroke="white" stroke-width="3"/>
<path d="M49.418 15.25L54.6593 10" stroke="white" stroke-width="3"/>
<path d="M80.3496 1H89.5592V3.12687H82.6249V7.54851H88.3132V9.73135H82.6249V15.8321H80.3496V1Z" fill="white"/>
<path d="M109.729 15.7761L105.666 10.0672H103.065V15.7761H100.79V1H105.991C106.966 1 107.778 1.16791 108.537 1.5597C109.295 1.95149 109.837 2.45522 110.27 3.18284C110.65 3.85448 110.866 4.63806 110.866 5.53358C110.866 6.48508 110.596 7.3806 110.108 8.10821C109.62 8.83582 108.97 9.39552 108.104 9.73135L112.383 15.8321H109.729V15.7761ZM103.065 7.99627H105.937C106.749 7.99627 107.345 7.77239 107.778 7.32463C108.212 6.87687 108.429 6.31717 108.429 5.58955C108.429 4.86194 108.212 4.24627 107.778 3.79851C107.345 3.35075 106.695 3.12687 105.937 3.12687H103.065V7.99627Z" fill="white"/>
<path d="M133.529 13.5373H127.082L126.053 16H123.615L129.954 1H130.712L136.996 16H134.504L133.529 13.5373ZM130.333 5.42164L127.949 11.5224H132.716L130.333 5.42164Z" fill="white"/>
<path d="M149.725 1H152V15.7761H149.725V1Z" fill="white"/>
</svg>
