<svg width="48" height="48" viewBox="-5 -5 60 60" fill="none" xmlns="http://www.w3.org/2000/svg">
<path d="M29.6669 21.3553C31.1765 21.3553 32.4003 20.1316 32.4003 18.622C32.4003 17.1124 31.1765 15.8887 29.6669 15.8887C28.1573 15.8887 26.9336 17.1124 26.9336 18.622C26.9336 20.1316 28.1573 21.3553 29.6669 21.3553Z" stroke="#6E758D" stroke-width="2" stroke-linecap="round" stroke-linejoin="round"/>
<path d="M18.7333 27.7333C20.2429 27.7333 21.4667 26.5095 21.4667 24.9999C21.4667 23.4904 20.2429 22.2666 18.7333 22.2666C17.2238 22.2666 16 23.4904 16 24.9999C16 26.5095 17.2238 27.7333 18.7333 27.7333Z" stroke="#6E758D" stroke-width="2" stroke-linecap="round" stroke-linejoin="round"/>
<path d="M29.6669 34.1107C31.1765 34.1107 32.4003 32.887 32.4003 31.3774C32.4003 29.8678 31.1765 28.644 29.6669 28.644C28.1573 28.644 26.9336 29.8678 26.9336 31.3774C26.9336 32.887 28.1573 34.1107 29.6669 34.1107Z" stroke="#6E758D" stroke-width="2" stroke-linecap="round" stroke-linejoin="round"/>
<path d="M21.0938 26.3755L27.3166 30.0017" stroke="#6E758D" stroke-width="2" stroke-linecap="round" stroke-linejoin="round"/>
<path d="M27.3075 19.9976L21.0938 23.6238" stroke="#6E758D" stroke-width="2" stroke-linecap="round" stroke-linejoin="round"/>
<path d="M25 48C12.2975 48 2 37.7025 2 25H-2C-2 39.9117 10.0883 52 25 52V48ZM48 25C48 37.7025 37.7025 48 25 48V52C39.9117 52 52 39.9117 52 25H48ZM25 2C37.7025 2 48 12.2975 48 25H52C52 10.0883 39.9117 -2 25 -2V2ZM25 -2C10.0883 -2 -2 10.0883 -2 25H2C2 12.2975 12.2975 2 25 2V-2Z" fill="#6E758D"/>
</svg>
