<svg width="20" height="20" viewBox="0 0 20 20" fill="none" xmlns="http://www.w3.org/2000/svg">
<path fill-rule="evenodd" clip-rule="evenodd" d="M20 5.20167C20 5.27 19.9771 5.33167 19.9332 5.38833C19.8874 5.44333 19.8399 5.47167 19.7854 5.47167C19.3474 5.51167 18.9868 5.645 18.7089 5.87333C18.4292 6.1 18.1425 6.535 17.8452 7.175L13.3069 16.865C13.277 16.955 13.1944 17 13.0572 17C12.9499 17 12.8672 16.955 12.8074 16.865L10.2621 11.8217L7.33509 16.865C7.27529 16.955 7.19261 17 7.08531 17C6.95515 17 6.86895 16.955 6.82674 16.865L2.36763 7.175C2.08971 6.57333 1.79595 6.15333 1.48637 5.915C1.17854 5.67667 0.747581 5.52833 0.19701 5.47167C0.149516 5.47167 0.103782 5.44833 0.0633246 5.4C0.0211082 5.35333 0 5.29833 0 5.23667C0 5.07833 0.0474934 5 0.14248 5C0.540018 5 0.955145 5.01667 1.38962 5.05C1.79244 5.085 2.17238 5.10167 2.5277 5.10167C2.89006 5.10167 3.3175 5.085 3.81003 5.05C4.32542 5.01667 4.78276 5 5.1803 5C5.27529 5 5.32278 5.07833 5.32278 5.23667C5.32278 5.39333 5.29288 5.47167 5.23483 5.47167C4.83729 5.5 4.52419 5.59667 4.29551 5.75833C4.06684 5.92167 3.95251 6.135 3.95251 6.4C3.95251 6.535 4 6.70333 4.09499 6.905L7.78012 14.79L9.87159 11.0467L7.9226 7.175C7.57256 6.485 7.28408 6.03833 7.05893 5.83833C6.83377 5.64 6.49252 5.51667 6.03518 5.47167C5.99296 5.47167 5.95427 5.44833 5.91557 5.4C5.87687 5.35333 5.85752 5.29833 5.85752 5.23667C5.85752 5.07833 5.89798 5 5.98241 5C6.37995 5 6.74406 5.01667 7.07652 5.05C7.39666 5.085 7.73791 5.10167 8.10026 5.10167C8.45559 5.10167 8.83201 5.085 9.22955 5.05C9.6394 5.01667 10.0422 5 10.4398 5C10.5347 5 10.5822 5.07833 10.5822 5.23667C10.5822 5.39333 10.5541 5.47167 10.4943 5.47167C9.69921 5.52333 9.30167 5.73667 9.30167 6.11333C9.30167 6.28167 9.39314 6.54333 9.57784 6.89667L10.8672 9.37667L12.1495 7.10833C12.3272 6.78833 12.4169 6.51833 12.4169 6.29833C12.4169 5.78167 12.0193 5.50667 11.2243 5.47167C11.1522 5.47167 11.117 5.39333 11.117 5.23667C11.117 5.18 11.1346 5.12667 11.1697 5.07667C11.2067 5.025 11.2419 5 11.277 5C11.562 5 11.9121 5.01667 12.3272 5.05C12.7247 5.085 13.0519 5.10167 13.3069 5.10167C13.4899 5.10167 13.7608 5.08667 14.1161 5.05833C14.5664 5.02 14.9446 5 15.2471 5C15.3175 5 15.3527 5.06667 15.3527 5.20167C15.3527 5.38167 15.2876 5.47167 15.1574 5.47167C14.6948 5.51667 14.3219 5.63833 14.0405 5.835C13.759 6.03167 13.4072 6.47833 12.9868 7.175L11.277 10.17L13.5919 14.6383L17.0097 7.10833C17.1275 6.83333 17.1873 6.58 17.1873 6.35C17.1873 5.79833 16.7898 5.50667 15.9947 5.47167C15.9226 5.47167 15.8874 5.39333 15.8874 5.23667C15.8874 5.07833 15.9402 5 16.0475 5C16.3377 5 16.6825 5.01667 17.08 5.05C17.4477 5.085 17.7573 5.10167 18.0053 5.10167C18.2674 5.10167 18.5699 5.085 18.9129 5.05C19.27 5.01667 19.5902 5 19.8751 5C19.9578 5 20 5.06667 20 5.20167Z" fill="#FF2E53"/>
</svg>
