<svg width="50" height="50" viewBox="0 0 50 50" fill="none" xmlns="http://www.w3.org/2000/svg">
<path d="M24.9994 45.8334C36.5053 45.8334 45.8327 36.506 45.8327 25C45.8327 13.4941 36.5053 4.16669 24.9994 4.16669C13.4934 4.16669 4.16602 13.4941 4.16602 25C4.16602 36.506 13.4934 45.8334 24.9994 45.8334Z" stroke="#97A3CB" stroke-opacity="0.3" stroke-width="2" stroke-linecap="round" stroke-linejoin="round"/>
<path d="M25 37.5C31.9036 37.5 37.5 31.9036 37.5 25C37.5 18.0964 31.9036 12.5 25 12.5C18.0964 12.5 12.5 18.0964 12.5 25C12.5 31.9036 18.0964 37.5 25 37.5Z" stroke="#97A3CB" stroke-opacity="0.3" stroke-width="2" stroke-linecap="round" stroke-linejoin="round"/>
<path d="M25.0007 29.1666C27.3018 29.1666 29.1673 27.3012 29.1673 25C29.1673 22.6988 27.3018 20.8333 25.0007 20.8333C22.6995 20.8333 20.834 22.6988 20.834 25C20.834 27.3012 22.6995 29.1666 25.0007 29.1666Z" stroke="#97A3CB" stroke-opacity="0.3" stroke-width="2" stroke-linecap="round" stroke-linejoin="round"/>
</svg>
