<svg width="48" height="50" viewBox="0 0 48 50" fill="none" xmlns="http://www.w3.org/2000/svg">
<path d="M24 29.1667C26.2091 29.1667 28 27.3012 28 25C28 22.6988 26.2091 20.8333 24 20.8333C21.7909 20.8333 20 22.6988 20 25C20 27.3012 21.7909 29.1667 24 29.1667Z" stroke="#FF2E53" stroke-width="2" stroke-linecap="round" stroke-linejoin="round"/>
<path d="M32.48 16.1667C33.5957 17.3276 34.4808 18.7062 35.0847 20.2237C35.6886 21.7411 35.9994 23.3677 35.9994 25.0104C35.9994 26.6531 35.6886 28.2797 35.0847 29.7972C34.4808 31.3146 33.5957 32.6932 32.48 33.8542M15.52 33.8333C14.4043 32.6724 13.5192 31.2938 12.9153 29.7763C12.3114 28.2589 12.0006 26.6323 12.0006 24.9896C12.0006 23.3469 12.3114 21.7203 12.9153 20.2028C13.5192 18.6853 14.4043 17.3067 15.52 16.1458M38.14 10.2708C41.8894 14.1777 43.9957 19.4757 43.9957 25C43.9957 30.5242 41.8894 35.8223 38.14 39.7292M9.86 39.7292C6.11058 35.8223 4.00427 30.5242 4.00427 25C4.00427 19.4757 6.11058 14.1777 9.86 10.2708" stroke="#FF2E53" stroke-width="2" stroke-linecap="round" stroke-linejoin="round"/>
</svg>
