<svg width="130" height="57" viewBox="0 0 130 57" fill="none" xmlns="http://www.w3.org/2000/svg">
<path d="M0 37.6606L7.68926 56.9999H11.5552L15.8758 46.1935L20.2216 56.9999H24.0875L31.7323 37.6606H0ZM9.51086 52.4476L5.42257 41.5784H13.9549L9.51086 52.4476ZM26.4873 41.5784L22.0432 52.4476L17.9546 41.5784H26.4873Z" fill="white"/>
<path d="M75.7514 37.6606L72.1409 45.4307H69.5429V37.6606H65.5117V56.9999H69.5429V49.3475H72.2758L75.7514 56.9999H79.8424L75.5523 47.1767L79.8424 37.6606H75.7514Z" fill="white"/>
<path d="M129.974 47.1767L130 47.1117H129.947L126.033 37.6606H115.798H115.669V56.9999H126.033L129.951 47.2382H130L129.974 47.1767ZM119.262 53.4017V41.5783H123.962L126.211 47.1767L123.864 53.4017H119.262Z" fill="white"/>
<path d="M45.6413 41.5784L47.0862 37.6606H34.8027V56.9999H44.6772L46.1227 53.3711H38.7999V49.3477H42.8948L44.3397 45.4309H38.7999V41.5784H45.6413Z" fill="white"/>
<path d="M107.557 49.6449L101.558 37.6606H101.261H97.3495H97.2441V56.9999H101.261V45.3762L107.303 56.9999H107.557H111.575V37.6606H107.557V49.6449Z" fill="white"/>
<path d="M60.0914 41.5784L61.4171 37.6606H50.1572V56.9999H59.2096L60.5336 53.3711H53.8222V49.3477H57.5753L58.9 45.4309H53.8222V41.5784H60.0914Z" fill="white"/>
<path d="M92.8475 41.5784L94.1729 37.6606H82.9131V56.9999H91.9646L93.29 53.3711H86.5779V49.3477H90.331L91.6565 45.4309H86.5779V41.5784H92.8475Z" fill="white"/>
<path d="M35.2034 8.14282H31.2863L23.543 27.4821H42.9918L35.2034 8.14282ZM33.3572 12.6971L37.4996 23.5668H28.8552L33.3572 12.6971Z" fill="white"/>
<path d="M83.314 8.14282H79.3967L71.6533 27.4821H91.1021L83.314 8.14282ZM81.4687 12.6971L85.6105 23.5668H76.9657L81.4687 12.6971Z" fill="white"/>
<path d="M31.7324 5.08929L33.6724 0H37.8742L35.89 5.04627L31.7324 5.08929Z" fill="white"/>
<path d="M56.2991 8.14282H44.0156V11.5082H47.9648V27.4821H52.3022V11.5082H56.2991V8.14282Z" fill="white"/>
<path d="M70.63 23.5662H63.3465V8.14282H59.3701V27.4821H69.1931L70.63 23.5662Z" fill="white"/>
<path d="M102.915 12.4884L105.692 9.97033C105.692 9.97033 103.12 6.78782 99.9667 6.82131C96.8109 6.85381 94.0688 9.14081 94.0688 11.9248C94.0688 14.7088 96.6405 16.4322 98.3893 17.9238C100.137 19.4161 102.607 21.0075 102.195 22.5973C101.783 24.1881 99.1773 24.6522 98.081 23.5919C96.9833 22.5313 96.5026 21.471 96.5026 21.471L93.1436 23.3264C93.1436 23.3264 94.7544 27.9998 100.137 27.7343C105.52 27.4697 106.583 23.029 106.069 20.974C105.554 18.9191 103.4 17.0556 101.544 15.5705C100.171 14.4731 96.369 11.7315 98.801 10.6321C100.926 9.67096 102.915 12.4884 102.915 12.4884Z" fill="white"/>
</svg>
