<svg width="173" height="38" viewBox="0 0 173 38" fill="none" xmlns="http://www.w3.org/2000/svg">
<g clip-path="url(#clip0)">
<path d="M3.47217 3.47322L3.47319 3.4722C4.85171 2.09052 6.61396 1.37142 9.11056 1.00474C11.6286 0.634913 14.8133 0.633362 18.9966 0.633362C23.1797 0.633362 26.3646 0.634901 28.8836 1.00392C31.381 1.36976 33.1453 2.08723 34.5273 3.46581C35.9094 4.84794 36.6286 6.61228 36.9953 9.10971C37.3651 11.6287 37.3667 14.8133 37.3667 18.9966C37.3667 23.1798 37.3651 26.3645 36.9953 28.8835C36.6286 31.3809 35.9094 33.1452 34.5273 34.5273C33.1453 35.9094 31.3793 36.6286 28.8809 36.9953C26.361 37.3652 23.1763 37.3667 18.9966 37.3667C14.8168 37.3667 11.6321 37.3652 9.11309 36.9953C6.61548 36.6286 4.85162 35.9095 3.47319 34.5278L3.47267 34.5273C2.09064 33.1453 1.37143 31.3794 1.00472 28.8809C0.634877 26.3611 0.633331 23.1764 0.633331 18.9966C0.633331 14.8168 0.634877 11.6321 1.00472 9.11313C1.37142 6.61551 2.09059 4.85165 3.47217 3.47322Z" stroke="white" stroke-width="2"/>
<path d="M18.181 31.2109C16.8161 30.1702 15.8095 28.6175 15.4852 26.809H11.0833V7.78505C13.4549 8.96235 15.144 11.5728 15.3488 14.2685L16.0142 19.6089L15.69 19.5577C14.9734 19.5577 14.3592 20.2231 14.3592 20.8885C14.3592 21.5027 14.8369 22.0316 15.4512 22.1682L16.253 22.3558C17.5839 19.8478 18.3346 17.3909 18.3346 14.9681C18.3346 12.7842 18.0445 10.6173 18.0104 8.39932C18.0104 7.40974 18.3858 6.50546 19 5.80591C19.6142 6.5225 19.9896 7.40974 19.9896 8.39932C19.9896 10.6173 19.6654 12.8012 19.6654 14.9681C19.6654 17.3738 20.4161 19.8478 21.747 22.3558L22.5489 22.1682C23.1631 22.0316 23.6408 21.5027 23.6408 20.8885C23.6408 20.2231 23.0266 19.5577 22.31 19.5577L21.9858 19.6089L22.6512 14.2685C22.9754 11.5728 24.5451 8.96235 26.9167 7.78505V26.809H22.5147C22.1905 28.6004 21.2351 30.2213 19.819 31.2109C19.4948 31.4497 19.2048 31.7398 19.017 32.1152C18.7952 31.7228 18.5052 31.4497 18.181 31.2109ZM13.1648 20.2402C13.3526 19.5236 13.8815 18.9094 14.5298 18.534L14.0009 14.1321C13.8132 12.7671 13.2502 11.5387 12.3971 10.532V20.2231H13.1648V20.2402ZM15.3999 25.4782C15.3999 24.8127 15.5023 24.1985 15.6388 23.5843L15.0246 23.4478C14.1204 23.1578 13.4208 22.4582 13.1819 21.5539H12.4312V25.4782H15.3999ZM18.3175 25.4782C18.3175 24.6762 17.7033 23.9596 16.9014 23.8743C16.7649 24.3862 16.6626 24.9151 16.6626 25.4782H18.3175ZM18.3175 26.809H16.8502C17.0891 27.8497 17.6009 28.7882 18.3175 29.6071V26.809ZM20.3991 22.6971C19.836 21.6563 19.3071 20.5643 18.983 19.4383C18.6588 20.5814 18.1299 21.6563 17.5668 22.6971C18.1299 22.8336 18.6076 23.2089 18.983 23.6355C19.3583 23.2089 19.836 22.8336 20.3991 22.6971ZM21.3034 25.4782C21.3034 24.9151 21.201 24.3862 21.0645 23.8743C20.2625 23.9767 19.6483 24.6762 19.6483 25.4782H21.3034ZM21.1156 26.809H19.6483V29.6071C20.365 28.7882 20.8768 27.8497 21.1156 26.809ZM25.5688 25.4782V21.5539H24.818C24.5792 22.4582 23.8796 23.1578 22.9754 23.4478L22.3612 23.5843C22.4976 24.1985 22.6001 24.8127 22.6001 25.4782H25.5688ZM25.5688 20.2402V10.5491C24.7157 11.5387 24.1015 12.7671 23.9649 14.1491L23.4361 18.5511C24.1015 18.9264 24.6133 19.5407 24.801 20.2572H25.5688V20.2402Z" fill="white"/>
</g>
<path d="M47.74 3.85999H49.5L51.47 9.44999H51.49L53.41 3.85999H55.15V11H53.96V5.48999H53.94L51.96 11H50.93L48.95 5.48999H48.93V11H47.74V3.85999Z" fill="white"/>
<path d="M56.5167 3.85999H57.6567V4.93999H56.5167V3.85999ZM56.5167 5.82999H57.6567V11H56.5167V5.82999Z" fill="white"/>
<path d="M58.9288 5.82999H60.0688V7.96999H62.6388V5.82999H63.7788V11H62.6388V8.81999H60.0688V11H58.9288V5.82999Z" fill="white"/>
<path d="M65.0421 3.85999H66.1821V4.93999H65.0421V3.85999ZM65.0421 5.82999H66.1821V11H65.0421V5.82999Z" fill="white"/>
<path d="M70.9142 7.55999C70.8675 7.23999 70.7375 6.99999 70.5242 6.83999C70.3175 6.67332 70.0542 6.58999 69.7342 6.58999C69.5875 6.58999 69.4309 6.61665 69.2642 6.66999C69.0975 6.71665 68.9442 6.80999 68.8042 6.94999C68.6642 7.08332 68.5475 7.27332 68.4542 7.51999C68.3609 7.75999 68.3142 8.07665 68.3142 8.46999C68.3142 8.68332 68.3375 8.89665 68.3842 9.10999C68.4375 9.32332 68.5175 9.51332 68.6242 9.67999C68.7375 9.84665 68.8809 9.98332 69.0542 10.09C69.2275 10.19 69.4375 10.24 69.6842 10.24C70.0175 10.24 70.2909 10.1367 70.5042 9.92999C70.7242 9.72332 70.8609 9.43332 70.9142 9.05999H72.0542C71.9475 9.73332 71.6909 10.25 71.2842 10.61C70.8842 10.9633 70.3509 11.14 69.6842 11.14C69.2775 11.14 68.9175 11.0733 68.6042 10.94C68.2975 10.8 68.0375 10.6133 67.8242 10.38C67.6109 10.14 67.4475 9.85665 67.3342 9.52999C67.2275 9.20332 67.1742 8.84999 67.1742 8.46999C67.1742 8.08332 67.2275 7.71999 67.3342 7.37999C67.4409 7.03999 67.6009 6.74665 67.8142 6.49999C68.0275 6.24665 68.2909 6.04999 68.6042 5.90999C68.9242 5.76332 69.2975 5.68999 69.7242 5.68999C70.0242 5.68999 70.3075 5.72999 70.5742 5.80999C70.8475 5.88332 71.0875 5.99665 71.2942 6.14999C71.5075 6.30332 71.6809 6.49665 71.8142 6.72999C71.9475 6.96332 72.0275 7.23999 72.0542 7.55999H70.9142Z" fill="white"/>
<path d="M77.0909 6.67999H75.3809V11H74.2409V6.67999H72.4609V5.82999H77.0909V6.67999Z" fill="white"/>
<path d="M81.3453 7.95999C81.332 7.77999 81.292 7.60665 81.2253 7.43999C81.1653 7.27332 81.0786 7.12999 80.9653 7.00999C80.8586 6.88332 80.7253 6.78332 80.5653 6.70999C80.412 6.62999 80.2386 6.58999 80.0453 6.58999C79.8453 6.58999 79.662 6.62665 79.4953 6.69999C79.3353 6.76665 79.1953 6.86332 79.0753 6.98999C78.962 7.10999 78.8686 7.25332 78.7953 7.41999C78.7286 7.58665 78.692 7.76665 78.6853 7.95999H81.3453ZM78.6853 8.70999C78.6853 8.90999 78.712 9.10332 78.7653 9.28999C78.8253 9.47665 78.912 9.63999 79.0253 9.77999C79.1386 9.91999 79.282 10.0333 79.4553 10.12C79.6286 10.2 79.8353 10.24 80.0753 10.24C80.4086 10.24 80.6753 10.17 80.8753 10.03C81.082 9.88332 81.2353 9.66665 81.3353 9.37999H82.4153C82.3553 9.65999 82.252 9.90999 82.1053 10.13C81.9586 10.35 81.782 10.5367 81.5753 10.69C81.3686 10.8367 81.1353 10.9467 80.8753 11.02C80.622 11.1 80.3553 11.14 80.0753 11.14C79.6686 11.14 79.3086 11.0733 78.9953 10.94C78.682 10.8067 78.4153 10.62 78.1953 10.38C77.982 10.14 77.8186 9.85332 77.7053 9.51999C77.5986 9.18665 77.5453 8.81999 77.5453 8.41999C77.5453 8.05332 77.602 7.70665 77.7153 7.37999C77.8353 7.04665 78.002 6.75665 78.2153 6.50999C78.4353 6.25665 78.6986 6.05665 79.0053 5.90999C79.312 5.76332 79.6586 5.68999 80.0453 5.68999C80.452 5.68999 80.8153 5.77665 81.1353 5.94999C81.462 6.11665 81.732 6.33999 81.9453 6.61999C82.1586 6.89999 82.312 7.22332 82.4053 7.58999C82.5053 7.94999 82.532 8.32332 82.4853 8.70999H78.6853Z" fill="white"/>
<path d="M83.382 5.82999H84.4619V6.52999H84.4819C84.6419 6.22999 84.8653 6.01665 85.152 5.88999C85.4386 5.75665 85.7486 5.68999 86.082 5.68999C86.4886 5.68999 86.8419 5.76332 87.1419 5.90999C87.4486 6.04999 87.702 6.24665 87.902 6.49999C88.102 6.74665 88.2519 7.03665 88.3519 7.36999C88.4519 7.70332 88.5019 8.05999 88.5019 8.43999C88.5019 8.78665 88.4553 9.12332 88.3619 9.44999C88.2753 9.77665 88.1386 10.0667 87.952 10.32C87.772 10.5667 87.542 10.7667 87.262 10.92C86.982 11.0667 86.6519 11.14 86.2719 11.14C86.1053 11.14 85.9386 11.1233 85.7719 11.09C85.6053 11.0633 85.4453 11.0167 85.292 10.95C85.1386 10.8833 84.9953 10.8 84.8619 10.7C84.7353 10.5933 84.6286 10.47 84.542 10.33H84.5219V12.91H83.382V5.82999ZM87.3619 8.41999C87.3619 8.18665 87.3319 7.95999 87.2719 7.73999C87.2119 7.51999 87.1219 7.32665 87.0019 7.15999C86.8819 6.98665 86.7319 6.84999 86.5519 6.74999C86.3719 6.64332 86.1653 6.58999 85.9319 6.58999C85.4519 6.58999 85.0886 6.75665 84.8419 7.08999C84.6019 7.42332 84.4819 7.86665 84.4819 8.41999C84.4819 8.67999 84.5119 8.92332 84.5719 9.14999C84.6386 9.36999 84.7353 9.55999 84.8619 9.71999C84.9886 9.87999 85.1386 10.0067 85.312 10.1C85.492 10.1933 85.6986 10.24 85.9319 10.24C86.1919 10.24 86.4119 10.1867 86.5919 10.08C86.7719 9.97332 86.9186 9.83665 87.0319 9.66999C87.1519 9.49665 87.2353 9.30332 87.2819 9.08999C87.3353 8.86999 87.3619 8.64665 87.3619 8.41999Z" fill="white"/>
<path d="M92.9552 7.55999C92.9086 7.23999 92.7786 6.99999 92.5652 6.83999C92.3586 6.67332 92.0952 6.58999 91.7752 6.58999C91.6286 6.58999 91.4719 6.61665 91.3052 6.66999C91.1386 6.71665 90.9852 6.80999 90.8452 6.94999C90.7052 7.08332 90.5886 7.27332 90.4952 7.51999C90.4019 7.75999 90.3552 8.07665 90.3552 8.46999C90.3552 8.68332 90.3786 8.89665 90.4252 9.10999C90.4786 9.32332 90.5586 9.51332 90.6652 9.67999C90.7786 9.84665 90.9219 9.98332 91.0952 10.09C91.2686 10.19 91.4786 10.24 91.7252 10.24C92.0586 10.24 92.3319 10.1367 92.5452 9.92999C92.7652 9.72332 92.9019 9.43332 92.9552 9.05999H94.0952C93.9886 9.73332 93.7319 10.25 93.3252 10.61C92.9252 10.9633 92.3919 11.14 91.7252 11.14C91.3186 11.14 90.9586 11.0733 90.6452 10.94C90.3386 10.8 90.0786 10.6133 89.8652 10.38C89.6519 10.14 89.4886 9.85665 89.3752 9.52999C89.2686 9.20332 89.2152 8.84999 89.2152 8.46999C89.2152 8.08332 89.2686 7.71999 89.3752 7.37999C89.4819 7.03999 89.6419 6.74665 89.8552 6.49999C90.0686 6.24665 90.3319 6.04999 90.6452 5.90999C90.9652 5.76332 91.3386 5.68999 91.7652 5.68999C92.0652 5.68999 92.3486 5.72999 92.6152 5.80999C92.8886 5.88332 93.1286 5.99665 93.3352 6.14999C93.5486 6.30332 93.7219 6.49665 93.8552 6.72999C93.9886 6.96332 94.0686 7.23999 94.0952 7.55999H92.9552Z" fill="white"/>
<path d="M99.1319 6.67999H97.4219V11H96.2819V6.67999H94.5019V5.82999H99.1319V6.67999Z" fill="white"/>
<path d="M101.006 7.93999H102.226C102.446 7.93999 102.626 7.88665 102.766 7.77999C102.913 7.66665 102.986 7.50999 102.986 7.30999C102.986 7.07665 102.92 6.91332 102.786 6.81999C102.66 6.72665 102.473 6.67999 102.226 6.67999H101.006V7.93999ZM99.8663 5.82999H102.586C103.053 5.82999 103.426 5.93665 103.706 6.14999C103.986 6.35665 104.126 6.67665 104.126 7.10999C104.126 7.36999 104.06 7.59332 103.926 7.77999C103.8 7.96665 103.62 8.10999 103.386 8.20999V8.22999C103.706 8.29665 103.946 8.44665 104.106 8.67999C104.273 8.91332 104.356 9.20665 104.356 9.55999C104.356 9.75999 104.32 9.94999 104.246 10.13C104.173 10.3033 104.06 10.4567 103.906 10.59C103.753 10.7167 103.556 10.8167 103.316 10.89C103.076 10.9633 102.79 11 102.456 11H99.8663V5.82999ZM101.006 10.15H102.356C102.636 10.15 102.85 10.0867 102.996 9.95999C103.143 9.82665 103.216 9.64332 103.216 9.40999C103.216 9.17665 103.143 8.99999 102.996 8.87999C102.85 8.75332 102.636 8.68999 102.356 8.68999H101.006V10.15Z" fill="white"/>
<path d="M107.685 11.14C107.272 11.14 106.902 11.0733 106.575 10.94C106.255 10.8 105.982 10.61 105.755 10.37C105.535 10.13 105.365 9.84332 105.245 9.50999C105.132 9.17665 105.075 8.80999 105.075 8.40999C105.075 8.01665 105.132 7.65332 105.245 7.31999C105.365 6.98665 105.535 6.69999 105.755 6.45999C105.982 6.21999 106.255 6.03332 106.575 5.89999C106.902 5.75999 107.272 5.68999 107.685 5.68999C108.098 5.68999 108.465 5.75999 108.785 5.89999C109.112 6.03332 109.385 6.21999 109.605 6.45999C109.832 6.69999 110.002 6.98665 110.115 7.31999C110.235 7.65332 110.295 8.01665 110.295 8.40999C110.295 8.80999 110.235 9.17665 110.115 9.50999C110.002 9.84332 109.832 10.13 109.605 10.37C109.385 10.61 109.112 10.8 108.785 10.94C108.465 11.0733 108.098 11.14 107.685 11.14ZM107.685 10.24C107.938 10.24 108.158 10.1867 108.345 10.08C108.532 9.97332 108.685 9.83332 108.805 9.65999C108.925 9.48665 109.012 9.29332 109.065 9.07999C109.125 8.85999 109.155 8.63665 109.155 8.40999C109.155 8.18999 109.125 7.96999 109.065 7.74999C109.012 7.52999 108.925 7.33665 108.805 7.16999C108.685 6.99665 108.532 6.85665 108.345 6.74999C108.158 6.64332 107.938 6.58999 107.685 6.58999C107.432 6.58999 107.212 6.64332 107.025 6.74999C106.838 6.85665 106.685 6.99665 106.565 7.16999C106.445 7.33665 106.355 7.52999 106.295 7.74999C106.242 7.96999 106.215 8.18999 106.215 8.40999C106.215 8.63665 106.242 8.85999 106.295 9.07999C106.355 9.29332 106.445 9.48665 106.565 9.65999C106.685 9.83332 106.838 9.97332 107.025 10.08C107.212 10.1867 107.432 10.24 107.685 10.24Z" fill="white"/>
<path d="M47.63 17.83H48.77V22.15H51.34V17.83H52.48V22.15H53.4V24.57H52.35V23H47.63V17.83Z" fill="white"/>
<path d="M54.1339 17.83H55.2739V21.38H55.2939L57.5639 17.83H58.9739V23H57.8339V19.42H57.8139L55.4939 23H54.1339V17.83Z" fill="white"/>
<path d="M63.9472 22.3H63.9272C63.7738 22.6 63.5605 22.8167 63.2872 22.95C63.0139 23.0767 62.7139 23.14 62.3872 23.14C61.9805 23.14 61.6239 23.07 61.3172 22.93C61.0172 22.7833 60.7672 22.5867 60.5672 22.34C60.3672 22.0933 60.2172 21.8033 60.1172 21.47C60.0172 21.13 59.9672 20.7667 59.9672 20.38C59.9672 19.9133 60.0305 19.51 60.1572 19.17C60.2839 18.83 60.4505 18.55 60.6572 18.33C60.8705 18.11 61.1105 17.95 61.3772 17.85C61.6505 17.7433 61.9272 17.69 62.2072 17.69C62.3672 17.69 62.5305 17.7067 62.6972 17.74C62.8639 17.7667 63.0238 17.8133 63.1772 17.88C63.3305 17.9467 63.4705 18.0333 63.5972 18.14C63.7305 18.24 63.8405 18.36 63.9272 18.5H63.9472V15.86H65.0872V18.5H65.1072C65.1939 18.36 65.3005 18.24 65.4272 18.14C65.5605 18.0333 65.7039 17.9467 65.8572 17.88C66.0105 17.8133 66.1705 17.7667 66.3372 17.74C66.5039 17.7067 66.6672 17.69 66.8272 17.69C67.1072 17.69 67.3805 17.7433 67.6472 17.85C67.9205 17.95 68.1605 18.11 68.3672 18.33C68.5805 18.55 68.7505 18.83 68.8772 19.17C69.0039 19.51 69.0672 19.9133 69.0672 20.38C69.0672 20.7667 69.0172 21.13 68.9172 21.47C68.8172 21.8033 68.6672 22.0933 68.4672 22.34C68.2672 22.5867 68.0139 22.7833 67.7072 22.93C67.4072 23.07 67.0539 23.14 66.6472 23.14C66.3205 23.14 66.0205 23.0767 65.7472 22.95C65.4739 22.8167 65.2605 22.6 65.1072 22.3H65.0872V24.91H63.9472V22.3ZM67.9272 20.47C67.9272 20.2433 67.9005 20.0167 67.8472 19.79C67.8005 19.5633 67.7172 19.3633 67.5972 19.19C67.4838 19.01 67.3339 18.8667 67.1472 18.76C66.9672 18.6467 66.7439 18.59 66.4772 18.59C66.0372 18.59 65.6872 18.75 65.4272 19.07C65.1738 19.3833 65.0472 19.83 65.0472 20.41C65.0472 20.6367 65.0739 20.86 65.1272 21.08C65.1872 21.2933 65.2739 21.4867 65.3872 21.66C65.5072 21.8333 65.6572 21.9733 65.8372 22.08C66.0239 22.1867 66.2439 22.24 66.4972 22.24C66.7439 22.24 66.9572 22.19 67.1372 22.09C67.3172 21.99 67.4639 21.8567 67.5772 21.69C67.6972 21.5233 67.7839 21.3333 67.8372 21.12C67.8972 20.9067 67.9272 20.69 67.9272 20.47ZM61.1072 20.47C61.1072 20.69 61.1339 20.9067 61.1872 21.12C61.2472 21.3333 61.3339 21.5233 61.4472 21.69C61.5672 21.8567 61.7172 21.99 61.8972 22.09C62.0772 22.19 62.2905 22.24 62.5372 22.24C62.7905 22.24 63.0072 22.1867 63.1872 22.08C63.3739 21.9733 63.5239 21.8333 63.6372 21.66C63.7572 21.4867 63.8439 21.2933 63.8972 21.08C63.9572 20.86 63.9872 20.6367 63.9872 20.41C63.9872 19.83 63.8572 19.3833 63.5972 19.07C63.3438 18.75 62.9972 18.59 62.5572 18.59C62.2905 18.59 62.0639 18.6467 61.8772 18.76C61.6972 18.8667 61.5472 19.01 61.4272 19.19C61.3139 19.3633 61.2305 19.5633 61.1772 19.79C61.1305 20.0167 61.1072 20.2433 61.1072 20.47Z" fill="white"/>
<path d="M70.0616 17.83H71.1416V18.53H71.1616C71.3216 18.23 71.545 18.0167 71.8316 17.89C72.1183 17.7567 72.4283 17.69 72.7616 17.69C73.1683 17.69 73.5216 17.7633 73.8216 17.91C74.1283 18.05 74.3816 18.2467 74.5816 18.5C74.7816 18.7467 74.9316 19.0367 75.0316 19.37C75.1316 19.7033 75.1816 20.06 75.1816 20.44C75.1816 20.7867 75.135 21.1233 75.0416 21.45C74.955 21.7767 74.8183 22.0667 74.6316 22.32C74.4516 22.5667 74.2216 22.7667 73.9416 22.92C73.6616 23.0667 73.3316 23.14 72.9516 23.14C72.785 23.14 72.6183 23.1233 72.4516 23.09C72.285 23.0633 72.125 23.0167 71.9716 22.95C71.8183 22.8833 71.675 22.8 71.5416 22.7C71.415 22.5933 71.3083 22.47 71.2216 22.33H71.2016V24.91H70.0616V17.83ZM74.0416 20.42C74.0416 20.1867 74.0116 19.96 73.9516 19.74C73.8916 19.52 73.8016 19.3267 73.6816 19.16C73.5616 18.9867 73.4116 18.85 73.2316 18.75C73.0516 18.6433 72.845 18.59 72.6116 18.59C72.1316 18.59 71.7683 18.7567 71.5216 19.09C71.2816 19.4233 71.1616 19.8667 71.1616 20.42C71.1616 20.68 71.1916 20.9233 71.2516 21.15C71.3183 21.37 71.415 21.56 71.5416 21.72C71.6683 21.88 71.8183 22.0067 71.9916 22.1C72.1716 22.1933 72.3783 22.24 72.6116 22.24C72.8716 22.24 73.0916 22.1867 73.2716 22.08C73.4516 21.9733 73.5983 21.8367 73.7116 21.67C73.8316 21.4967 73.915 21.3033 73.9616 21.09C74.015 20.87 74.0416 20.6467 74.0416 20.42Z" fill="white"/>
<path d="M78.5149 23.14C78.1016 23.14 77.7316 23.0733 77.4049 22.94C77.0849 22.8 76.8116 22.61 76.5849 22.37C76.3649 22.13 76.1949 21.8433 76.0749 21.51C75.9616 21.1767 75.9049 20.81 75.9049 20.41C75.9049 20.0167 75.9616 19.6533 76.0749 19.32C76.1949 18.9867 76.3649 18.7 76.5849 18.46C76.8116 18.22 77.0849 18.0333 77.4049 17.9C77.7316 17.76 78.1016 17.69 78.5149 17.69C78.9283 17.69 79.2949 17.76 79.6149 17.9C79.9416 18.0333 80.2149 18.22 80.4349 18.46C80.6616 18.7 80.8316 18.9867 80.9449 19.32C81.0649 19.6533 81.1249 20.0167 81.1249 20.41C81.1249 20.81 81.0649 21.1767 80.9449 21.51C80.8316 21.8433 80.6616 22.13 80.4349 22.37C80.2149 22.61 79.9416 22.8 79.6149 22.94C79.2949 23.0733 78.9283 23.14 78.5149 23.14ZM78.5149 22.24C78.7683 22.24 78.9883 22.1867 79.1749 22.08C79.3616 21.9733 79.5149 21.8333 79.6349 21.66C79.7549 21.4867 79.8416 21.2933 79.8949 21.08C79.9549 20.86 79.9849 20.6367 79.9849 20.41C79.9849 20.19 79.9549 19.97 79.8949 19.75C79.8416 19.53 79.7549 19.3367 79.6349 19.17C79.5149 18.9967 79.3616 18.8567 79.1749 18.75C78.9883 18.6433 78.7683 18.59 78.5149 18.59C78.2616 18.59 78.0416 18.6433 77.8549 18.75C77.6683 18.8567 77.5149 18.9967 77.3949 19.17C77.2749 19.3367 77.1849 19.53 77.1249 19.75C77.0716 19.97 77.0449 20.19 77.0449 20.41C77.0449 20.6367 77.0716 20.86 77.1249 21.08C77.1849 21.2933 77.2749 21.4867 77.3949 21.66C77.5149 21.8333 77.6683 21.9733 77.8549 22.08C78.0416 22.1867 78.2616 22.24 78.5149 22.24Z" fill="white"/>
<path d="M83.2427 19.94H84.4627C84.6827 19.94 84.8627 19.8867 85.0027 19.78C85.1493 19.6667 85.2227 19.51 85.2227 19.31C85.2227 19.0767 85.156 18.9133 85.0227 18.82C84.896 18.7267 84.7093 18.68 84.4627 18.68H83.2427V19.94ZM82.1027 17.83H84.8227C85.2893 17.83 85.6627 17.9367 85.9427 18.15C86.2227 18.3567 86.3627 18.6767 86.3627 19.11C86.3627 19.37 86.296 19.5933 86.1627 19.78C86.036 19.9667 85.856 20.11 85.6227 20.21V20.23C85.9427 20.2967 86.1827 20.4467 86.3427 20.68C86.5093 20.9133 86.5927 21.2067 86.5927 21.56C86.5927 21.76 86.556 21.95 86.4827 22.13C86.4093 22.3033 86.296 22.4567 86.1427 22.59C85.9893 22.7167 85.7927 22.8167 85.5527 22.89C85.3127 22.9633 85.026 23 84.6927 23H82.1027V17.83ZM83.2427 22.15H84.5927C84.8727 22.15 85.086 22.0867 85.2327 21.96C85.3793 21.8267 85.4527 21.6433 85.4527 21.41C85.4527 21.1767 85.3793 21 85.2327 20.88C85.086 20.7533 84.8727 20.69 84.5927 20.69H83.2427V22.15Z" fill="white"/>
<path d="M89.9212 23.14C89.5078 23.14 89.1378 23.0733 88.8112 22.94C88.4912 22.8 88.2178 22.61 87.9912 22.37C87.7712 22.13 87.6012 21.8433 87.4812 21.51C87.3678 21.1767 87.3112 20.81 87.3112 20.41C87.3112 20.0167 87.3678 19.6533 87.4812 19.32C87.6012 18.9867 87.7712 18.7 87.9912 18.46C88.2178 18.22 88.4912 18.0333 88.8112 17.9C89.1378 17.76 89.5078 17.69 89.9212 17.69C90.3345 17.69 90.7012 17.76 91.0212 17.9C91.3478 18.0333 91.6212 18.22 91.8412 18.46C92.0678 18.7 92.2378 18.9867 92.3512 19.32C92.4712 19.6533 92.5312 20.0167 92.5312 20.41C92.5312 20.81 92.4712 21.1767 92.3512 21.51C92.2378 21.8433 92.0678 22.13 91.8412 22.37C91.6212 22.61 91.3478 22.8 91.0212 22.94C90.7012 23.0733 90.3345 23.14 89.9212 23.14ZM89.9212 22.24C90.1745 22.24 90.3945 22.1867 90.5812 22.08C90.7678 21.9733 90.9212 21.8333 91.0412 21.66C91.1612 21.4867 91.2478 21.2933 91.3012 21.08C91.3612 20.86 91.3912 20.6367 91.3912 20.41C91.3912 20.19 91.3612 19.97 91.3012 19.75C91.2478 19.53 91.1612 19.3367 91.0412 19.17C90.9212 18.9967 90.7678 18.8567 90.5812 18.75C90.3945 18.6433 90.1745 18.59 89.9212 18.59C89.6678 18.59 89.4478 18.6433 89.2612 18.75C89.0745 18.8567 88.9212 18.9967 88.8012 19.17C88.6812 19.3367 88.5912 19.53 88.5312 19.75C88.4778 19.97 88.4512 20.19 88.4512 20.41C88.4512 20.6367 88.4778 20.86 88.5312 21.08C88.5912 21.2933 88.6812 21.4867 88.8012 21.66C88.9212 21.8333 89.0745 21.9733 89.2612 22.08C89.4478 22.1867 89.6678 22.24 89.9212 22.24Z" fill="white"/>
<path d="M93.6489 23V17.83H94.7889V23H93.6489ZM92.7889 16.98V15.9H93.9289V16.98H92.7889ZM95.6489 15.9V16.98H94.5089V15.9H95.6489Z" fill="white"/>
<path d="M103.038 18.68H101.328V23H100.188V18.68H98.4081V17.83H103.038V18.68Z" fill="white"/>
<path d="M103.773 17.83H104.853V18.53H104.873C105.033 18.23 105.256 18.0167 105.543 17.89C105.829 17.7567 106.139 17.69 106.473 17.69C106.879 17.69 107.233 17.7633 107.533 17.91C107.839 18.05 108.093 18.2467 108.293 18.5C108.493 18.7467 108.643 19.0367 108.743 19.37C108.843 19.7033 108.893 20.06 108.893 20.44C108.893 20.7867 108.846 21.1233 108.753 21.45C108.666 21.7767 108.529 22.0667 108.343 22.32C108.163 22.5667 107.933 22.7667 107.653 22.92C107.373 23.0667 107.043 23.14 106.663 23.14C106.496 23.14 106.329 23.1233 106.163 23.09C105.996 23.0633 105.836 23.0167 105.683 22.95C105.529 22.8833 105.386 22.8 105.253 22.7C105.126 22.5933 105.019 22.47 104.933 22.33H104.913V24.91H103.773V17.83ZM107.753 20.42C107.753 20.1867 107.723 19.96 107.663 19.74C107.603 19.52 107.513 19.3267 107.393 19.16C107.273 18.9867 107.123 18.85 106.943 18.75C106.763 18.6433 106.556 18.59 106.323 18.59C105.843 18.59 105.479 18.7567 105.233 19.09C104.993 19.4233 104.873 19.8667 104.873 20.42C104.873 20.68 104.903 20.9233 104.963 21.15C105.029 21.37 105.126 21.56 105.253 21.72C105.379 21.88 105.529 22.0067 105.703 22.1C105.883 22.1933 106.089 22.24 106.323 22.24C106.583 22.24 106.803 22.1867 106.983 22.08C107.163 21.9733 107.309 21.8367 107.423 21.67C107.543 21.4967 107.626 21.3033 107.673 21.09C107.726 20.87 107.753 20.6467 107.753 20.42Z" fill="white"/>
<path d="M114.186 21.85C114.186 21.99 114.203 22.09 114.236 22.15C114.276 22.21 114.349 22.24 114.456 22.24H114.576C114.623 22.24 114.676 22.2333 114.736 22.22V23.01C114.696 23.0233 114.643 23.0367 114.576 23.05C114.516 23.07 114.453 23.0867 114.386 23.1C114.319 23.1133 114.253 23.1233 114.186 23.13C114.119 23.1367 114.063 23.14 114.016 23.14C113.783 23.14 113.589 23.0933 113.436 23C113.283 22.9067 113.183 22.7433 113.136 22.51C112.909 22.73 112.629 22.89 112.296 22.99C111.969 23.09 111.653 23.14 111.346 23.14C111.113 23.14 110.889 23.1067 110.676 23.04C110.463 22.98 110.273 22.89 110.106 22.77C109.946 22.6433 109.816 22.4867 109.716 22.3C109.623 22.1067 109.576 21.8833 109.576 21.63C109.576 21.31 109.633 21.05 109.746 20.85C109.866 20.65 110.019 20.4933 110.206 20.38C110.399 20.2667 110.613 20.1867 110.846 20.14C111.086 20.0867 111.326 20.0467 111.566 20.02C111.773 19.98 111.969 19.9533 112.156 19.94C112.343 19.92 112.506 19.89 112.646 19.85C112.793 19.81 112.906 19.75 112.986 19.67C113.073 19.5833 113.116 19.4567 113.116 19.29C113.116 19.1433 113.079 19.0233 113.006 18.93C112.939 18.8367 112.853 18.7667 112.746 18.72C112.646 18.6667 112.533 18.6333 112.406 18.62C112.279 18.6 112.159 18.59 112.046 18.59C111.726 18.59 111.463 18.6567 111.256 18.79C111.049 18.9233 110.933 19.13 110.906 19.41H109.766C109.786 19.0767 109.866 18.8 110.006 18.58C110.146 18.36 110.323 18.1833 110.536 18.05C110.756 17.9167 111.003 17.8233 111.276 17.77C111.549 17.7167 111.829 17.69 112.116 17.69C112.369 17.69 112.619 17.7167 112.866 17.77C113.113 17.8233 113.333 17.91 113.526 18.03C113.726 18.15 113.886 18.3067 114.006 18.5C114.126 18.6867 114.186 18.9167 114.186 19.19V21.85ZM113.046 20.41C112.873 20.5233 112.659 20.5933 112.406 20.62C112.153 20.64 111.899 20.6733 111.646 20.72C111.526 20.74 111.409 20.77 111.296 20.81C111.183 20.8433 111.083 20.8933 110.996 20.96C110.909 21.02 110.839 21.1033 110.786 21.21C110.739 21.31 110.716 21.4333 110.716 21.58C110.716 21.7067 110.753 21.8133 110.826 21.9C110.899 21.9867 110.986 22.0567 111.086 22.11C111.193 22.1567 111.306 22.19 111.426 22.21C111.553 22.23 111.666 22.24 111.766 22.24C111.893 22.24 112.029 22.2233 112.176 22.19C112.323 22.1567 112.459 22.1 112.586 22.02C112.719 21.94 112.829 21.84 112.916 21.72C113.003 21.5933 113.046 21.44 113.046 21.26V20.41Z" fill="white"/>
<path d="M115.442 17.83H116.582V19.97H119.152V17.83H120.293V23H119.152V20.82H116.582V23H115.442V17.83Z" fill="white"/>
<path d="M125.016 19.56C124.969 19.24 124.839 19 124.626 18.84C124.419 18.6733 124.156 18.59 123.836 18.59C123.689 18.59 123.532 18.6167 123.366 18.67C123.199 18.7167 123.046 18.81 122.906 18.95C122.766 19.0833 122.649 19.2733 122.556 19.52C122.462 19.76 122.416 20.0767 122.416 20.47C122.416 20.6833 122.439 20.8967 122.486 21.11C122.539 21.3233 122.619 21.5133 122.726 21.68C122.839 21.8467 122.982 21.9833 123.156 22.09C123.329 22.19 123.539 22.24 123.786 22.24C124.119 22.24 124.392 22.1367 124.606 21.93C124.826 21.7233 124.962 21.4333 125.016 21.06H126.156C126.049 21.7333 125.792 22.25 125.386 22.61C124.986 22.9633 124.452 23.14 123.786 23.14C123.379 23.14 123.019 23.0733 122.706 22.94C122.399 22.8 122.139 22.6133 121.926 22.38C121.712 22.14 121.549 21.8567 121.436 21.53C121.329 21.2033 121.276 20.85 121.276 20.47C121.276 20.0833 121.329 19.72 121.436 19.38C121.542 19.04 121.702 18.7467 121.916 18.5C122.129 18.2467 122.392 18.05 122.706 17.91C123.026 17.7633 123.399 17.69 123.826 17.69C124.126 17.69 124.409 17.73 124.676 17.81C124.949 17.8833 125.189 17.9967 125.396 18.15C125.609 18.3033 125.782 18.4967 125.916 18.73C126.049 18.9633 126.129 19.24 126.156 19.56H125.016Z" fill="white"/>
<path d="M130.812 22.3H130.792C130.639 22.6 130.426 22.8167 130.152 22.95C129.879 23.0767 129.579 23.14 129.252 23.14C128.846 23.14 128.489 23.07 128.182 22.93C127.882 22.7833 127.632 22.5867 127.432 22.34C127.232 22.0933 127.082 21.8033 126.982 21.47C126.882 21.13 126.832 20.7667 126.832 20.38C126.832 19.9133 126.896 19.51 127.022 19.17C127.149 18.83 127.316 18.55 127.522 18.33C127.736 18.11 127.976 17.95 128.242 17.85C128.516 17.7433 128.792 17.69 129.072 17.69C129.232 17.69 129.396 17.7067 129.562 17.74C129.729 17.7667 129.889 17.8133 130.042 17.88C130.196 17.9467 130.336 18.0333 130.462 18.14C130.596 18.24 130.706 18.36 130.792 18.5H130.812V15.86H131.952V18.5H131.972C132.059 18.36 132.166 18.24 132.292 18.14C132.426 18.0333 132.569 17.9467 132.722 17.88C132.876 17.8133 133.036 17.7667 133.202 17.74C133.369 17.7067 133.532 17.69 133.692 17.69C133.972 17.69 134.246 17.7433 134.512 17.85C134.786 17.95 135.026 18.11 135.232 18.33C135.446 18.55 135.616 18.83 135.742 19.17C135.869 19.51 135.932 19.9133 135.932 20.38C135.932 20.7667 135.882 21.13 135.782 21.47C135.682 21.8033 135.532 22.0933 135.332 22.34C135.132 22.5867 134.879 22.7833 134.572 22.93C134.272 23.07 133.919 23.14 133.512 23.14C133.186 23.14 132.886 23.0767 132.612 22.95C132.339 22.8167 132.126 22.6 131.972 22.3H131.952V24.91H130.812V22.3ZM134.792 20.47C134.792 20.2433 134.766 20.0167 134.712 19.79C134.666 19.5633 134.582 19.3633 134.462 19.19C134.349 19.01 134.199 18.8667 134.012 18.76C133.832 18.6467 133.609 18.59 133.342 18.59C132.902 18.59 132.552 18.75 132.292 19.07C132.039 19.3833 131.912 19.83 131.912 20.41C131.912 20.6367 131.939 20.86 131.992 21.08C132.052 21.2933 132.139 21.4867 132.252 21.66C132.372 21.8333 132.522 21.9733 132.702 22.08C132.889 22.1867 133.109 22.24 133.362 22.24C133.609 22.24 133.822 22.19 134.002 22.09C134.182 21.99 134.329 21.8567 134.442 21.69C134.562 21.5233 134.649 21.3333 134.702 21.12C134.762 20.9067 134.792 20.69 134.792 20.47ZM127.972 20.47C127.972 20.69 127.999 20.9067 128.052 21.12C128.112 21.3333 128.199 21.5233 128.312 21.69C128.432 21.8567 128.582 21.99 128.762 22.09C128.942 22.19 129.156 22.24 129.402 22.24C129.656 22.24 129.872 22.1867 130.052 22.08C130.239 21.9733 130.389 21.8333 130.502 21.66C130.622 21.4867 130.709 21.2933 130.762 21.08C130.822 20.86 130.852 20.6367 130.852 20.41C130.852 19.83 130.722 19.3833 130.462 19.07C130.209 18.75 129.862 18.59 129.422 18.59C129.156 18.59 128.929 18.6467 128.742 18.76C128.562 18.8667 128.412 19.01 128.292 19.19C128.179 19.3633 128.096 19.5633 128.042 19.79C127.996 20.0167 127.972 20.2433 127.972 20.47Z" fill="white"/>
<path d="M139.267 23.14C138.854 23.14 138.484 23.0733 138.157 22.94C137.837 22.8 137.564 22.61 137.337 22.37C137.117 22.13 136.947 21.8433 136.827 21.51C136.714 21.1767 136.657 20.81 136.657 20.41C136.657 20.0167 136.714 19.6533 136.827 19.32C136.947 18.9867 137.117 18.7 137.337 18.46C137.564 18.22 137.837 18.0333 138.157 17.9C138.484 17.76 138.854 17.69 139.267 17.69C139.68 17.69 140.047 17.76 140.367 17.9C140.694 18.0333 140.967 18.22 141.187 18.46C141.414 18.7 141.584 18.9867 141.697 19.32C141.817 19.6533 141.877 20.0167 141.877 20.41C141.877 20.81 141.817 21.1767 141.697 21.51C141.584 21.8433 141.414 22.13 141.187 22.37C140.967 22.61 140.694 22.8 140.367 22.94C140.047 23.0733 139.68 23.14 139.267 23.14ZM139.267 22.24C139.52 22.24 139.74 22.1867 139.927 22.08C140.114 21.9733 140.267 21.8333 140.387 21.66C140.507 21.4867 140.594 21.2933 140.647 21.08C140.707 20.86 140.737 20.6367 140.737 20.41C140.737 20.19 140.707 19.97 140.647 19.75C140.594 19.53 140.507 19.3367 140.387 19.17C140.267 18.9967 140.114 18.8567 139.927 18.75C139.74 18.6433 139.52 18.59 139.267 18.59C139.014 18.59 138.794 18.6433 138.607 18.75C138.42 18.8567 138.267 18.9967 138.147 19.17C138.027 19.3367 137.937 19.53 137.877 19.75C137.824 19.97 137.797 20.19 137.797 20.41C137.797 20.6367 137.824 20.86 137.877 21.08C137.937 21.2933 138.027 21.4867 138.147 21.66C138.267 21.8333 138.42 21.9733 138.607 22.08C138.794 22.1867 139.014 22.24 139.267 22.24Z" fill="white"/>
<path d="M142.855 17.83H143.935V18.53H143.955C144.115 18.23 144.338 18.0167 144.625 17.89C144.911 17.7567 145.221 17.69 145.555 17.69C145.961 17.69 146.315 17.7633 146.615 17.91C146.921 18.05 147.175 18.2467 147.375 18.5C147.575 18.7467 147.725 19.0367 147.825 19.37C147.925 19.7033 147.975 20.06 147.975 20.44C147.975 20.7867 147.928 21.1233 147.835 21.45C147.748 21.7767 147.611 22.0667 147.425 22.32C147.245 22.5667 147.015 22.7667 146.735 22.92C146.455 23.0667 146.125 23.14 145.745 23.14C145.578 23.14 145.411 23.1233 145.245 23.09C145.078 23.0633 144.918 23.0167 144.765 22.95C144.611 22.8833 144.468 22.8 144.335 22.7C144.208 22.5933 144.101 22.47 144.015 22.33H143.995V24.91H142.855V17.83ZM146.835 20.42C146.835 20.1867 146.805 19.96 146.745 19.74C146.685 19.52 146.595 19.3267 146.475 19.16C146.355 18.9867 146.205 18.85 146.025 18.75C145.845 18.6433 145.638 18.59 145.405 18.59C144.925 18.59 144.561 18.7567 144.315 19.09C144.075 19.4233 143.955 19.8667 143.955 20.42C143.955 20.68 143.985 20.9233 144.045 21.15C144.111 21.37 144.208 21.56 144.335 21.72C144.461 21.88 144.611 22.0067 144.785 22.1C144.965 22.1933 145.171 22.24 145.405 22.24C145.665 22.24 145.885 22.1867 146.065 22.08C146.245 21.9733 146.391 21.8367 146.505 21.67C146.625 21.4967 146.708 21.3033 146.755 21.09C146.808 20.87 146.835 20.6467 146.835 20.42Z" fill="white"/>
<path d="M148.968 17.83H150.838L151.798 21.52H151.818L152.738 17.83H154.598V23H153.448V19.11H153.438L152.378 23H151.188L150.128 19.11H150.108V23H148.968V17.83Z" fill="white"/>
<path d="M160.162 21.85C160.162 21.99 160.179 22.09 160.212 22.15C160.252 22.21 160.326 22.24 160.432 22.24H160.552C160.599 22.24 160.652 22.2333 160.712 22.22V23.01C160.672 23.0233 160.619 23.0367 160.552 23.05C160.492 23.07 160.429 23.0867 160.362 23.1C160.296 23.1133 160.229 23.1233 160.162 23.13C160.096 23.1367 160.039 23.14 159.992 23.14C159.759 23.14 159.566 23.0933 159.412 23C159.259 22.9067 159.159 22.7433 159.112 22.51C158.886 22.73 158.606 22.89 158.272 22.99C157.946 23.09 157.629 23.14 157.322 23.14C157.089 23.14 156.866 23.1067 156.652 23.04C156.439 22.98 156.249 22.89 156.082 22.77C155.922 22.6433 155.792 22.4867 155.692 22.3C155.599 22.1067 155.552 21.8833 155.552 21.63C155.552 21.31 155.609 21.05 155.722 20.85C155.842 20.65 155.996 20.4933 156.182 20.38C156.376 20.2667 156.589 20.1867 156.822 20.14C157.062 20.0867 157.302 20.0467 157.542 20.02C157.749 19.98 157.946 19.9533 158.132 19.94C158.319 19.92 158.482 19.89 158.622 19.85C158.769 19.81 158.882 19.75 158.962 19.67C159.049 19.5833 159.092 19.4567 159.092 19.29C159.092 19.1433 159.056 19.0233 158.982 18.93C158.916 18.8367 158.829 18.7667 158.722 18.72C158.622 18.6667 158.509 18.6333 158.382 18.62C158.256 18.6 158.136 18.59 158.022 18.59C157.702 18.59 157.439 18.6567 157.232 18.79C157.026 18.9233 156.909 19.13 156.882 19.41H155.742C155.762 19.0767 155.842 18.8 155.982 18.58C156.122 18.36 156.299 18.1833 156.512 18.05C156.732 17.9167 156.979 17.8233 157.252 17.77C157.526 17.7167 157.806 17.69 158.092 17.69C158.346 17.69 158.596 17.7167 158.842 17.77C159.089 17.8233 159.309 17.91 159.502 18.03C159.702 18.15 159.862 18.3067 159.982 18.5C160.102 18.6867 160.162 18.9167 160.162 19.19V21.85ZM159.022 20.41C158.849 20.5233 158.636 20.5933 158.382 20.62C158.129 20.64 157.876 20.6733 157.622 20.72C157.502 20.74 157.386 20.77 157.272 20.81C157.159 20.8433 157.059 20.8933 156.972 20.96C156.886 21.02 156.816 21.1033 156.762 21.21C156.716 21.31 156.692 21.4333 156.692 21.58C156.692 21.7067 156.729 21.8133 156.802 21.9C156.876 21.9867 156.962 22.0567 157.062 22.11C157.169 22.1567 157.282 22.19 157.402 22.21C157.529 22.23 157.642 22.24 157.742 22.24C157.869 22.24 158.006 22.2233 158.152 22.19C158.299 22.1567 158.436 22.1 158.562 22.02C158.696 21.94 158.806 21.84 158.892 21.72C158.979 21.5933 159.022 21.44 159.022 21.26V20.41Z" fill="white"/>
<path d="M161.419 17.83H162.559V22.15H165.129V17.83H166.269V22.15H167.189V24.57H166.139V23H161.419V17.83Z" fill="white"/>
<path d="M167.923 15.86H169.063V16.94H167.923V15.86ZM167.923 17.83H169.063V23H167.923V17.83Z" fill="white"/>
<path d="M170.475 23V17.83H171.615V23H170.475ZM169.615 16.98V15.9H170.755V16.98H169.615ZM172.475 15.9V16.98H171.335V15.9H172.475Z" fill="white"/>
<path d="M48.1 33.96C48.3533 33.96 48.59 33.8833 48.81 33.73C49.03 33.57 49.1933 33.3567 49.3 33.09L46.95 27.86H48.44L50.07 31.85H50.09L51.75 27.86H53.15L50.79 33.1C50.4833 33.7866 50.1167 34.2833 49.69 34.59C49.27 34.89 48.79 35.04 48.25 35.04C48.1233 35.04 48.0167 35.0367 47.93 35.03C47.85 35.0233 47.77 35.0133 47.69 35V33.92C47.77 33.9333 47.84 33.9433 47.9 33.95C47.96 33.9567 48.0267 33.96 48.1 33.96Z" fill="white"/>
<path d="M53.7335 29.83H54.8735V31.92L56.9335 29.83H58.3335L56.3535 31.73L58.5235 35H57.1335L55.5535 32.49L54.8735 33.15V35H53.7335V29.83Z" fill="white"/>
<path d="M59.1046 29.83H60.1846V30.53H60.2046C60.3646 30.23 60.5879 30.0167 60.8746 29.89C61.1613 29.7567 61.4713 29.69 61.8046 29.69C62.2113 29.69 62.5646 29.7633 62.8646 29.91C63.1713 30.05 63.4246 30.2467 63.6246 30.5C63.8246 30.7467 63.9746 31.0367 64.0746 31.37C64.1746 31.7033 64.2246 32.06 64.2246 32.44C64.2246 32.7867 64.1779 33.1233 64.0846 33.45C63.9979 33.7767 63.8613 34.0667 63.6746 34.32C63.4946 34.5667 63.2646 34.7666 62.9846 34.92C62.7046 35.0666 62.3746 35.14 61.9946 35.14C61.8279 35.14 61.6613 35.1233 61.4946 35.09C61.3279 35.0633 61.1679 35.0167 61.0146 34.95C60.8613 34.8833 60.7179 34.8 60.5846 34.7C60.4579 34.5933 60.3513 34.47 60.2646 34.33H60.2446V36.91H59.1046V29.83ZM63.0846 32.42C63.0846 32.1867 63.0546 31.96 62.9946 31.74C62.9346 31.52 62.8446 31.3267 62.7246 31.16C62.6046 30.9867 62.4546 30.85 62.2746 30.75C62.0946 30.6433 61.8879 30.59 61.6546 30.59C61.1746 30.59 60.8113 30.7567 60.5646 31.09C60.3246 31.4233 60.2046 31.8667 60.2046 32.42C60.2046 32.68 60.2346 32.9233 60.2946 33.15C60.3613 33.37 60.4579 33.56 60.5846 33.72C60.7113 33.88 60.8613 34.0066 61.0346 34.1C61.2146 34.1933 61.4213 34.24 61.6546 34.24C61.9146 34.24 62.1346 34.1867 62.3146 34.08C62.4946 33.9733 62.6413 33.8366 62.7546 33.67C62.8746 33.4966 62.9579 33.3033 63.0046 33.09C63.0579 32.87 63.0846 32.6467 63.0846 32.42Z" fill="white"/>
<path d="M69.5179 33.85C69.5179 33.99 69.5346 34.09 69.5679 34.15C69.6079 34.21 69.6812 34.24 69.7879 34.24H69.9079C69.9546 34.24 70.0079 34.2333 70.0679 34.22V35.01C70.0279 35.0233 69.9746 35.0367 69.9079 35.05C69.8479 35.07 69.7846 35.0866 69.7179 35.1C69.6512 35.1133 69.5846 35.1233 69.5179 35.13C69.4512 35.1367 69.3946 35.14 69.3479 35.14C69.1146 35.14 68.9212 35.0933 68.7679 35C68.6146 34.9067 68.5146 34.7433 68.4679 34.51C68.2412 34.73 67.9612 34.89 67.6279 34.99C67.3012 35.09 66.9846 35.14 66.6779 35.14C66.4446 35.14 66.2212 35.1067 66.0079 35.04C65.7946 34.98 65.6046 34.89 65.4379 34.77C65.2779 34.6433 65.1479 34.4867 65.0479 34.3C64.9546 34.1067 64.9079 33.8833 64.9079 33.63C64.9079 33.31 64.9646 33.05 65.0779 32.85C65.1979 32.65 65.3512 32.4933 65.5379 32.38C65.7312 32.2667 65.9446 32.1867 66.1779 32.14C66.4179 32.0867 66.6579 32.0467 66.8979 32.02C67.1046 31.98 67.3012 31.9533 67.4879 31.94C67.6746 31.92 67.8379 31.89 67.9779 31.85C68.1246 31.81 68.2379 31.75 68.3179 31.67C68.4046 31.5833 68.4479 31.4567 68.4479 31.29C68.4479 31.1433 68.4112 31.0233 68.3379 30.93C68.2712 30.8367 68.1846 30.7667 68.0779 30.72C67.9779 30.6667 67.8646 30.6333 67.7379 30.62C67.6112 30.6 67.4912 30.59 67.3779 30.59C67.0579 30.59 66.7946 30.6567 66.5879 30.79C66.3812 30.9233 66.2646 31.13 66.2379 31.41H65.0979C65.1179 31.0767 65.1979 30.8 65.3379 30.58C65.4779 30.36 65.6546 30.1833 65.8679 30.05C66.0879 29.9167 66.3346 29.8233 66.6079 29.77C66.8812 29.7167 67.1612 29.69 67.4479 29.69C67.7012 29.69 67.9512 29.7167 68.1979 29.77C68.4446 29.8233 68.6646 29.91 68.8579 30.03C69.0579 30.15 69.2179 30.3067 69.3379 30.5C69.4579 30.6867 69.5179 30.9167 69.5179 31.19V33.85ZM68.3779 32.41C68.2046 32.5233 67.9912 32.5933 67.7379 32.62C67.4846 32.64 67.2312 32.6733 66.9779 32.72C66.8579 32.74 66.7412 32.77 66.6279 32.81C66.5146 32.8433 66.4146 32.8933 66.3279 32.96C66.2412 33.02 66.1712 33.1033 66.1179 33.21C66.0712 33.31 66.0479 33.4333 66.0479 33.58C66.0479 33.7067 66.0846 33.8133 66.1579 33.9C66.2312 33.9867 66.3179 34.0567 66.4179 34.11C66.5246 34.1567 66.6379 34.19 66.7579 34.21C66.8846 34.23 66.9979 34.24 67.0979 34.24C67.2246 34.24 67.3612 34.2233 67.5079 34.19C67.6546 34.1567 67.7912 34.1 67.9179 34.02C68.0512 33.94 68.1612 33.84 68.2479 33.72C68.3346 33.5933 68.3779 33.44 68.3779 33.26V32.41Z" fill="white"/>
<path d="M70.9145 35V29.83H72.0545V35H70.9145ZM70.0545 28.98V27.9H71.1945V28.98H70.0545ZM72.9145 27.9V28.98H71.7745V27.9H72.9145Z" fill="white"/>
<path d="M73.4405 29.83H74.5805V31.97H77.1505V29.83H78.2905V35H77.1505V32.82H74.5805V35H73.4405V29.83Z" fill="white"/>
<path d="M79.5538 29.83H80.6938V33.38H80.7138L82.9838 29.83H84.3938V35H83.2538V31.42H83.2338L80.9138 35H79.5538V29.83Z" fill="white"/>
<defs>
<clipPath id="clip0">
<rect width="38" height="38" fill="white"/>
</clipPath>
</defs>
</svg>
