<svg width="130" height="39" viewBox="0 0 130 39" fill="none" xmlns="http://www.w3.org/2000/svg">
<path d="M23.8237 18.1971L25.2235 13.3481H31.7473C35.1808 13.3481 37.2674 11.81 38.2182 8.55135L38.7465 6.75255C39.9614 2.60749 37.9805 0.0266113 33.6489 0.0266113H5.28241L0 18.1971H23.8237ZM33.6225 4.90161L32.5132 8.86418H26.5441L27.6798 4.92768H33.6225V4.90161Z" fill="white"/>
<path d="M41.1764 18.1965L42.9196 15.1464H51.0016V18.1965H56.3105V0H45.8777L35.0224 18.1965H41.1764ZM48.8094 4.95321H51.0016V10.7406H45.4551L48.8094 4.95321Z" fill="white"/>
<path d="M77.9683 8.36832L78.4437 6.72594C79.6587 2.52874 77.6778 0 73.3462 0H63.2568L57.9744 18.1965H63.4945L64.9472 13.1912H68.3807L69.9391 18.1965H75.6176L73.9537 12.8523C75.961 12.2527 77.2816 10.7667 77.9683 8.36832ZM67.3507 4.90107H73.2934L72.1841 8.83757H66.215L67.3507 4.90107Z" fill="white"/>
<path d="M83.1451 18.1965L88.4275 0H82.8809L77.6249 18.1965H83.1451Z" fill="white"/>
<path d="M49.3113 20.7774L43.078 28.0508L40.5161 20.7774H16.6132L11.3572 39H35.1808L38.0862 28.9372L40.0142 34.5682H43.5799L48.7302 28.5722L45.6928 39H51.2129L56.4689 20.7774H49.3113Z" fill="white"/>
<path d="M63.8643 20.7774L52.9825 38.9739H59.1365L60.8797 35.9238H68.9618V38.9739H74.2706V20.8035L63.8643 20.7774ZM63.4417 31.5441L66.7696 25.7567H68.9618V31.5441H63.4417Z" fill="white"/>
<path d="M92.9439 25.9913L94.4494 20.7774H77.6778L76.1723 25.9913H82.247L78.4701 39H83.9902L87.7672 25.9913H92.9439Z" fill="white"/>
<path d="M100.313 25.9913H108.685L110.217 20.8035H101.29C97.8566 20.8035 95.77 22.3416 94.8192 25.6003L92.8647 32.248C91.6233 36.4973 93.6306 38.9739 97.9622 38.9739H104.909L106.414 33.7861H98.0414L100.313 25.9913Z" fill="white"/>
<path d="M124.48 20.7774L122.578 27.2948H116.266L118.141 20.7774H112.621L107.365 39H112.885L114.76 32.4826H121.073L119.197 39H124.744L130 20.7774H124.48Z" fill="white"/>
</svg>
