<svg width="80" height="96" viewBox="0 0 80 96" fill="none" xmlns="http://www.w3.org/2000/svg">
<path d="M36.6735 70.2568L30.9792 66.5157L30.8535 66.4324V66.5846V74.6026V74.7274L30.9713 74.6764L36.4995 72.4087L41.7026 76.6309L41.81 76.7217L41.8362 76.5807L43.1431 67.0894L43.1701 66.933L43.0257 67.0073L36.6735 70.2568Z" fill="white"/>
<path d="M44.194 69.9405H44.1869L44.1361 69.9567L44.1274 70.0147L43.8028 72.3019L43.7861 72.4243L43.9006 72.3928L57.3434 68.4614L57.4029 68.4547V68.3954L57.5673 66.2679L57.5785 66.1514L57.4616 66.1854L44.194 69.9405Z" fill="white"/>
<path d="M62.4044 26.0129C66.3365 12.9245 64.8616 8.99811 65.1891 0C43.8829 16.0338 50.767 35.0102 49.6196 34.6833C39.6224 20.7782 29.7896 8.8351 14.8764 2.61693C14.8764 1.14607 12.4164 24.0497 43.7177 35.0102C21.7572 37.7914 23.3962 51.5335 23.3962 51.5335C23.8881 58.7326 36.5073 61.8415 36.5073 61.8415C34.0489 65.4407 36.3429 69.2041 36.5073 68.8764L36.5093 68.8768C38.6398 67.7316 42.5732 65.7688 45.032 64.4605L44.3761 68.2227L57.4876 63.9694C59.1265 56.6072 62.7319 43.3546 55.0292 37.793C55.0292 37.4658 58.7982 35.5021 62.4044 26.0129ZM34.706 47.6087C33.0671 47.6087 31.7565 46.2996 31.7565 44.6629C31.7565 43.0273 33.0671 41.5544 34.706 41.5544C36.345 41.5544 37.8199 43.0273 37.8199 44.6629C37.8199 46.2984 36.3454 47.6087 34.706 47.6087Z" fill="white"/>
<path d="M39.5657 85.9448H39.8428C39.9469 85.9448 40.0339 85.9448 40.12 85.9626C40.1899 85.9796 40.242 86.0485 40.242 86.1343C40.242 86.1514 40.242 86.187 40.2241 86.204C40.2241 86.221 40.2241 86.2567 40.2062 86.2737V86.3077C40.2062 86.3247 40.1899 86.3247 40.1899 86.3417C40.172 86.3588 40.172 86.3936 40.172 86.4114C40.155 86.4284 40.155 86.4454 40.155 86.4454L39.2015 88.0001H39.0975L38.231 86.8602C38.0919 86.6885 38.057 86.5151 38.0229 86.4114C37.97 86.3077 37.9529 86.221 37.9529 86.1343C37.9529 86.0485 37.9871 85.9958 38.057 85.9796C38.109 85.9448 38.196 85.9448 38.283 85.9448H38.5602V83.4917H32.6133V85.9448H32.7689C33.0811 85.9448 33.3066 85.9958 33.4452 86.1173C33.5838 86.238 33.7224 86.3936 33.8265 86.601C33.8439 86.6358 33.8439 86.6537 33.861 86.6885C33.8781 86.7055 33.8955 86.7395 33.913 86.7565L35.0746 88.5883L36.7564 91.1459L36.7743 92.5977V92.7184C36.7743 92.9768 36.7223 93.1323 36.6353 93.202C36.5313 93.2539 36.4451 93.2887 36.3411 93.2887H35.5436V95.7248H41.6815V93.2887H40.8833C40.7963 93.2887 40.7102 93.2539 40.624 93.202C40.5549 93.168 40.5191 93.0124 40.5191 92.771V91.0932L42.5301 87.3787C42.6171 87.2062 42.6521 87.0158 42.722 86.8781C42.7732 86.7225 42.8252 86.601 42.8772 86.4981C42.9634 86.3077 43.0683 86.1514 43.1894 86.0655C43.2934 85.9796 43.4845 85.9448 43.7096 85.9448H44.177V83.4917H39.5657V85.9448Z" fill="white"/>
<path d="M51.7352 92.7371C51.5792 92.8926 51.4064 92.9963 51.2142 93.0304C51.111 93.0482 51.024 93.0652 50.937 93.0652H49.914V90.7677H50.8679C51.1984 90.7677 51.4755 90.8705 51.6836 91.0779C51.8747 91.2675 51.9775 91.5786 51.9775 91.9764C51.9775 92.3215 51.9084 92.5815 51.7352 92.7371ZM49.9144 86.1523H50.3651C50.7813 86.1523 51.1451 86.2049 51.4231 86.3086C51.7178 86.4285 51.8747 86.7234 51.8747 87.2071C51.8747 87.4833 51.7877 87.7434 51.6312 87.9848C51.4576 88.2092 51.163 88.3129 50.7118 88.3129H49.914L49.9144 86.1523ZM53.3991 89.4017H53.1919V89.2462H53.2784C53.9198 89.2462 54.5099 89.0048 55.0302 88.5381C55.5666 88.0715 55.8272 87.4331 55.8272 86.5857C55.8272 85.3235 55.3194 84.172 54.507 83.7817C53.6651 83.3765 52.7915 83.5121 51.7702 83.5096C51.5276 83.4926 51.302 83.4926 51.0598 83.4926H45.043V85.9465H45.5803C45.7534 85.9465 45.8924 85.9635 45.9973 86.0332C46.1176 86.0834 46.1696 86.2916 46.1696 86.6376V92.5815C46.1696 92.9275 46.1176 93.1349 45.9973 93.2029C45.8924 93.2556 45.7534 93.2904 45.5803 93.2904C45.564 93.2904 45.5461 93.2726 45.5461 93.2726L45.043 93.2904V95.7265H49.7758C49.7758 95.7265 52.9418 95.7522 54.1757 95.6315C55.4959 95.5017 56.2084 94.0673 56.2084 92.4082C56.2084 91.6304 55.9658 90.9224 55.515 90.3164C55.0639 89.7128 54.353 89.4017 53.3991 89.4017Z" fill="white"/>
<path d="M64.0277 90.1777C64.0277 91.0251 63.9411 91.7331 63.7684 92.3035C63.5944 92.8738 63.2124 93.1501 62.6231 93.1501C62.0341 93.1501 61.6529 92.8738 61.479 92.3035C61.3062 91.7331 61.2367 91.0251 61.2367 90.1777V89.054C61.2367 87.8453 61.3404 87.0675 61.5489 86.7054C61.7561 86.3417 61.9996 86.1173 62.2589 86.0654C62.3292 86.0484 62.3812 86.0484 62.4499 86.0484H62.8141C62.8661 86.0484 62.9356 86.0484 62.9872 86.0654C63.2482 86.1173 63.49 86.3417 63.6989 86.7054C63.9236 87.0675 64.0277 87.8453 64.0277 89.054V90.1743V90.1777ZM68.1887 87.3446C68.0855 87.0157 67.9631 86.6884 67.8079 86.3587C67.6522 86.0306 67.4608 85.7195 67.2361 85.4262C66.9576 85.0284 66.6638 84.7173 66.3333 84.4589C66.0216 84.1997 65.6924 83.9744 65.3632 83.801C64.843 83.5426 64.3407 83.3692 63.8541 83.3004C63.3518 83.2145 62.9531 83.1797 62.6231 83.1797C62.2943 83.1797 61.8781 83.2145 61.3924 83.3004C60.8896 83.3871 60.3865 83.5596 59.8492 83.8197C59.5375 84.0093 59.2261 84.2167 58.8957 84.4759C58.5831 84.7343 58.2893 85.0454 58.0113 85.4262C57.7861 85.7195 57.5947 86.0306 57.4569 86.3587C57.3013 86.6884 57.1623 87.0157 57.0582 87.3446C56.9363 87.7416 56.8497 88.1224 56.8156 88.5015C56.7636 88.8993 56.7461 89.2622 56.7461 89.6082C56.7461 89.9192 56.764 90.334 56.8156 90.8347C56.8843 91.3532 57.0058 91.8717 57.1968 92.425C57.2826 92.6664 57.3874 92.9078 57.5085 93.1501C57.6309 93.4101 57.7687 93.6516 57.9422 93.876C58.445 94.567 59.0863 95.0863 59.8662 95.4314C60.6474 95.7595 61.4448 95.9669 62.2768 96.0009H62.9701C63.8021 95.9669 64.5999 95.7595 65.3795 95.4314C66.1606 95.0863 66.8028 94.567 67.3051 93.876C67.4787 93.6516 67.6165 93.4101 67.7384 93.1501C67.8603 92.9078 67.9631 92.6664 68.0497 92.425C68.2411 91.8717 68.3797 91.3532 68.4318 90.8347C68.4834 90.334 68.5191 89.9192 68.5191 89.6082C68.5191 89.2622 68.4834 88.8993 68.4492 88.5015C68.3972 88.1224 68.3106 87.7416 68.1887 87.3446Z" fill="white"/>
<path d="M75.4049 83.4922V85.9461H75.665C75.7686 85.9461 75.8556 85.9461 75.9426 85.9631C76.0292 85.9801 76.0637 86.0506 76.0637 86.1365V86.2053C76.0458 86.2224 76.0458 86.2572 76.0458 86.2742C76.0458 86.2912 76.0292 86.2912 76.0292 86.309C76.0292 86.3252 76.0292 86.3252 76.0117 86.3439C76.0117 86.3609 75.9946 86.3949 75.9946 86.4127C75.9946 86.4298 75.9763 86.4468 75.9763 86.4468L75.0399 87.9504H74.9371L74.0523 86.8624C73.9137 86.689 73.8796 86.5173 73.8454 86.4127C73.7926 86.309 73.7755 86.2224 73.7755 86.1365C73.7755 86.0506 73.8097 85.998 73.8796 85.9801C73.9482 85.9461 74.0173 85.9461 74.1043 85.9461H74.399V83.4922H68.418V85.9461H68.5919C68.9032 85.9461 69.128 85.998 69.2674 86.1178C69.4064 86.2394 69.5275 86.3949 69.6312 86.6023C69.6482 86.6371 69.6657 86.6533 69.6657 86.689C69.6823 86.7068 69.7007 86.7408 69.7185 86.7587L72.5952 91.1132V92.7197C72.5952 92.9789 72.5436 93.1345 72.4575 93.2033C72.3701 93.256 72.2669 93.29 72.1616 93.29H71.3825V95.7261H77.5025V93.29H76.7221C76.6177 93.29 76.5319 93.256 76.4624 93.2033C76.3754 93.1693 76.3405 93.0138 76.3405 92.7715V90.9916L78.3519 87.38C78.4385 87.2075 78.4917 87.0179 78.5433 86.8786C78.5945 86.723 78.647 86.6023 78.699 86.4994C78.7856 86.309 78.8892 86.1535 79.0107 86.0668C79.1323 85.9801 79.3054 85.9461 79.531 85.9461H79.9996V83.4922H75.4049Z" fill="white"/>
<path d="M27.6728 89.8675H26.6327L27.6553 86.6537H27.7943L28.6957 89.8675H27.6711H27.6728ZM33.5327 93.0983C33.4115 92.9768 33.3079 92.7532 33.2039 92.4413C33.1864 92.4073 33.1864 92.3724 33.1693 92.3384C33.1693 92.3036 33.1523 92.2687 33.1523 92.2347L30.6551 83.4917H25.9385L24.9684 86.7565L23.3378 91.9228C23.3203 91.9755 23.3032 92.0273 23.2687 92.0962C23.2512 92.1472 23.2341 92.2169 23.2167 92.2696C23.1472 92.4591 23.0431 92.6325 22.9216 92.8051C22.887 92.8569 22.8525 92.9079 22.8175 92.9606C22.644 93.168 22.4014 93.2887 22.0896 93.2887H21.8291V95.7256H26.3722V93.2887H26.1986C26.0255 93.2887 25.921 93.2717 25.852 93.2539C25.7824 93.2369 25.7304 93.2199 25.7134 93.185C25.6784 93.1502 25.6613 93.0983 25.6613 93.0473C25.6613 92.9768 25.6784 92.9079 25.6959 92.8391L25.7654 92.6147H29.4927L29.5622 93.0124C29.5622 93.0295 29.5622 93.0473 29.5797 93.0473V93.0813C29.5797 93.185 29.5448 93.2369 29.4582 93.2539C29.3716 93.2717 29.2846 93.2887 29.1806 93.2887H28.6774V95.7256H34.3825V93.2887H34.122C33.8631 93.2887 33.6725 93.2198 33.5327 93.0983Z" fill="white"/>
<path d="M6.38096 88.2793C6.20699 88.4689 6.03427 88.6074 5.82577 88.6763C5.70466 88.6941 5.56565 88.7281 5.44454 88.7451C5.32301 88.7451 5.23645 88.7621 5.14988 88.7621H4.88976V86.1365H5.25434C5.75626 86.1365 6.12042 86.2572 6.32893 86.5173C6.53703 86.7587 6.64107 87.0519 6.64107 87.3979C6.64107 87.7948 6.55451 88.0889 6.38096 88.2793ZM9.20727 84.3218C8.13227 83.8373 6.9528 83.561 5.65222 83.5092C5.47867 83.4922 5.30553 83.4922 5.13198 83.4922H0V85.9461H0.502752C0.763284 85.9461 0.918938 85.9801 1.00592 86.0668C1.0929 86.1535 1.14451 86.3439 1.14451 86.6371V92.5811C1.14451 92.8752 1.09249 93.0656 1.00592 93.1515C0.919354 93.2382 0.763284 93.29 0.502752 93.29L0 93.2713V95.7253H6.22489V93.2884H5.53152C5.25434 93.2884 5.08079 93.2195 5.01129 93.1158C4.92472 93.0121 4.8906 92.8396 4.8906 92.5803V91.4226H6.20699C7.59455 91.4226 8.61754 91.1804 9.27636 90.6797C9.91812 90.1944 10.3514 89.6419 10.5765 89.0546C10.6631 88.7953 10.7322 88.5369 10.7671 88.2947C10.8021 88.0533 10.8192 87.8272 10.8192 87.6206C10.8192 85.9104 10.2823 84.8216 9.20727 84.3193" fill="white"/>
<path d="M19.3341 91.5615C19.3166 91.6822 19.2991 91.7681 19.2821 91.8548C19.1784 92.3214 19.0573 92.5985 18.9012 92.7014C18.7627 92.8051 18.4676 92.8569 18.0169 92.8569H16.231V86.6018C16.231 86.3086 16.2651 86.1173 16.3521 86.0493C16.4212 85.9796 16.5602 85.9456 16.7854 85.9456H17.4267V83.4917H11.3408V85.9456H11.8611C12.1736 85.9456 12.3467 86.0153 12.4162 86.1352C12.4679 86.2907 12.4857 86.4624 12.4857 86.6358V92.5807C12.4857 92.754 12.4679 92.9266 12.3992 93.0983C12.3467 93.2198 12.1736 93.2887 11.8611 93.2887L11.3408 93.2717V95.7256H21.1199L21.2061 91.2156H19.3857C19.3686 91.3541 19.3511 91.4578 19.3341 91.5615Z" fill="white"/>
</svg>
