<svg width="130" height="34" viewBox="0 0 130 34" fill="none" xmlns="http://www.w3.org/2000/svg">
<g clip-path="url(#clip0)">
<path d="M10.1096 28.2103C8.77131 28.2321 7.44331 27.9725 6.21089 27.448C4.97847 26.9236 3.86891 26.146 2.9535 25.1651C2.00202 24.2061 1.25068 23.0658 0.743519 21.8113C0.236359 20.5568 -0.0164221 19.2133 -9.874e-06 17.8594C-0.0205506 16.5088 0.227193 15.1676 0.728735 13.9143C1.23028 12.661 1.97555 11.5207 2.92097 10.5601C3.83538 9.57799 4.94476 8.79951 6.17741 8.27497C7.41006 7.75044 8.73856 7.49152 10.0771 7.51495C11.567 7.50519 13.0419 7.81424 14.4036 8.42155C15.7654 9.02886 16.9827 9.9205 17.9748 11.0371L16.1077 13.0302C14.2731 11.0698 12.2564 10.1158 10.038 10.1158C9.08937 10.1004 8.14884 10.2936 7.28239 10.682C6.41594 11.0703 5.64454 11.6443 5.02226 12.3637C3.65915 13.8611 2.92695 15.831 2.97952 17.8594C2.9336 19.8841 3.6812 21.8459 5.06129 23.3224C5.71636 24.0511 6.52071 24.6288 7.41909 25.0157C8.31747 25.4026 9.28858 25.5896 10.2657 25.5638C12.3735 25.5638 14.3577 24.5683 16.2183 22.5774L18.1699 24.3745C15.8757 26.9317 13.1889 28.2103 10.1096 28.2103Z" fill="white"/>
<path d="M22.0537 28.0534C21.2547 28.0506 20.4592 27.9474 19.6857 27.7463L20.0305 25.2174C20.494 25.3774 20.9785 25.4677 21.4682 25.4853C21.9348 25.5029 22.4005 25.4319 22.8409 25.2762C23.3143 25.0232 23.7084 24.6431 23.9794 24.1784C24.4712 23.403 24.803 22.5364 24.9552 21.6298C25.2404 20.0827 25.438 18.5206 25.5472 16.951C25.7099 14.9383 25.7944 12.4813 25.7944 9.59292V7.93311H39.7618V27.7463H36.8213V10.5404H28.5788V10.9979C28.5987 13.5703 28.4836 16.142 28.234 18.7023C28.0845 20.3851 27.7973 22.0528 27.3753 23.6882C27.1229 24.7203 26.6327 25.6783 25.9441 26.4851C25.4752 27.0655 24.8659 27.5155 24.1745 27.792C23.4862 27.9932 22.7701 28.0815 22.0537 28.0534Z" fill="white"/>
<path d="M49.377 33.9804C47.9187 33.9722 46.4814 33.6303 45.1744 32.9806L46.1892 30.6608C47.1413 31.1409 48.1947 31.383 49.2599 31.3665C50.0871 31.3897 50.8921 31.0952 51.5108 30.5431C52.3007 29.7122 52.9119 28.7268 53.3063 27.6483L44.3352 7.93311H47.5879L54.744 24.4528L61.0869 7.93311H64.2161L55.9475 28.3998C55.3659 30.0353 54.4125 31.5121 53.1632 32.7127C52.0953 33.5814 50.7502 34.0318 49.377 33.9804Z" fill="white"/>
<path d="M67.0785 27.7463L74.8136 17.6437L67.3712 7.90698H70.7281L76.5831 15.5722L82.4381 7.90698H85.6908L78.2225 17.5914L86.0291 27.7463H82.6202L76.505 19.6629L70.3573 27.7463H67.0785Z" fill="white"/>
<path d="M96.2818 28.1711C94.4127 28.2208 92.5807 27.6412 91.0774 26.5243C90.3722 25.9969 89.8058 25.3046 89.4271 24.5075C89.0485 23.7104 88.8691 22.8325 88.9046 21.9501C88.8598 21.0234 89.0457 20.1001 89.4456 19.2638C89.8454 18.4274 90.4465 17.7044 91.1945 17.1601C92.7211 16.0362 94.7682 15.4742 97.3357 15.4742C99.375 15.4746 101.404 15.7583 103.366 16.3172V15.6833C103.415 14.9472 103.304 14.2093 103.04 13.5209C102.776 12.8325 102.365 12.2101 101.838 11.6971C100.626 10.7095 99.088 10.2171 97.5309 10.3183C95.453 10.357 93.4084 10.8498 91.5393 11.7625L90.6611 9.34464C92.8969 8.26933 95.3385 7.69412 97.8171 7.65869C100.623 7.65869 102.748 8.3884 104.193 9.84781C105.563 11.2245 106.25 13.1653 106.255 15.6702V27.7463H103.353V24.8319C102.523 25.9126 101.449 26.7792 100.219 27.3599C98.9896 27.9405 97.6398 28.2186 96.2818 28.1711ZM96.8543 25.7925C98.5216 25.836 100.154 25.3108 101.486 24.3025C102.095 23.8678 102.589 23.2921 102.929 22.6244C103.269 21.9567 103.443 21.2165 103.438 20.4667V18.6304C101.566 18.0754 99.6256 17.7894 97.674 17.7809C96.1829 17.6939 94.702 18.0778 93.4389 18.8788C92.9565 19.204 92.5639 19.6466 92.2977 20.1654C92.0315 20.6841 91.9004 21.2621 91.9166 21.8455C91.9002 22.4055 92.0217 22.9609 92.2702 23.4625C92.5188 23.9641 92.8867 24.3963 93.3413 24.7208C94.3599 25.453 95.5894 25.8294 96.8413 25.7925H96.8543Z" fill="white"/>
<path d="M112.487 27.7463V7.93312H115.421V23.6164L127.131 7.93312H129.993V27.7463H127.053V12.063L115.304 27.7463H112.487ZM124.717 3.79666C123.734 4.66904 122.458 5.13586 121.146 5.10359C119.836 5.1342 118.563 4.6675 117.581 3.79666C116.609 2.91955 115.977 1.72497 115.798 0.424755L117.789 0C118.297 1.79051 119.415 2.68576 121.146 2.68576C122.876 2.68576 123.995 1.79051 124.503 0L126.526 0.424755C126.338 1.72784 125.697 2.92219 124.717 3.79666Z" fill="white"/>
<path d="M14.8521 18.0684L8.18396 14.0104V21.8259L14.8521 18.0684Z" fill="white"/>
</g>
<defs>
<clipPath id="clip0">
<rect width="130" height="34" fill="white"/>
</clipPath>
</defs>
</svg>
