<svg width="133" height="38" viewBox="0 0 133 38" fill="none" xmlns="http://www.w3.org/2000/svg">
<path d="M18.5879 0.155499C23.7189 0.155499 28.3658 2.23529 31.7349 5.61739C35.0846 8.99949 37.1757 13.6645 37.1757 18.8153C37.1757 23.9662 35.1039 28.6312 31.7349 32.0133C28.3658 35.3954 23.7189 37.4752 18.5879 37.4752C13.4568 37.4752 8.80987 35.3954 5.44082 32.0133C2.07177 28.6312 0 23.9662 0 18.8153C0 13.6645 2.07177 8.99949 5.44082 5.61739C8.80987 2.25473 13.4568 0.155499 18.5879 0.155499ZM18.433 10.0297C18.4523 10.4767 18.2006 10.399 17.794 10.4962C17.6585 10.535 17.0582 10.7488 17.0001 10.7877C17.097 10.9432 17.4648 10.9238 17.6778 11.157C17.8715 11.3708 17.7553 11.7985 17.6004 11.954C17.2712 12.0123 16.8065 11.9151 16.4774 11.8957C15.8965 11.8762 16.032 12.2261 16.0708 12.6926C16.0901 12.8286 16.0514 12.9258 16.0127 12.9841C15.0833 12.9453 14.1345 12.9453 13.2051 12.9841C11.9853 13.023 10.7848 13.1396 9.60373 13.3146C9.50691 13.1591 9.37138 13.0425 9.21648 12.9453C9.68118 11.7013 10.2427 10.4962 10.8429 9.3688C13.0696 5.22864 16.1288 1.98261 19.5173 0.796931C19.2075 0.777494 18.8977 0.777494 18.5685 0.777494C18.3361 0.777494 18.0844 0.777494 17.8521 0.796931C14.8703 2.35192 12.237 5.36471 10.2427 9.0578C9.60373 10.2435 9.04222 11.4875 8.55816 12.7898C8.01601 12.8092 7.57068 13.2174 7.47387 13.7422C6.56384 13.956 5.67317 14.2281 4.82123 14.5391C4.68569 14.4225 4.53079 14.3448 4.35653 14.3059C4.24036 13.5284 4.16291 12.7315 4.14354 11.954C4.20163 11.9151 4.25972 11.8762 4.33717 11.8568C4.58888 11.779 4.89867 11.7402 5.0923 11.643C5.11166 11.4486 4.99549 11.2348 4.89867 11.157C4.70505 11.2931 4.85995 11.3903 4.56951 11.3903L4.49207 11.0598C4.29844 11.1376 4.39525 11.157 4.22099 11.2153C4.18227 11.1959 4.16291 11.157 4.14354 11.1376C4.14354 11.0793 4.14354 11.0015 4.14354 10.9432V10.9238C4.14354 10.9043 4.16291 10.8849 4.16291 10.8655C4.18227 10.8072 4.16291 10.7488 4.14354 10.71C4.14354 10.5739 4.14354 10.4379 4.16291 10.3018C4.18227 10.2824 4.22099 10.2629 4.27908 10.2435V10.6322C4.45334 10.71 4.56951 10.5934 4.64696 10.5156C4.68569 10.3212 4.51143 10.4767 4.70505 10.3212C4.95676 10.1074 5.18911 10.2824 5.36337 10.1269C5.38273 10.1074 5.61508 9.83529 5.63444 10.0297C5.63444 10.0491 5.65381 10.0491 5.65381 10.0685C5.69253 10.3601 5.69253 9.83529 5.65381 10.1269C5.65381 10.2046 5.65381 10.1852 5.59572 10.2435C5.49891 10.3601 5.51827 10.2629 5.42146 10.4573C5.34401 10.5934 5.22783 10.8655 5.22783 11.0015C5.61508 11.0598 5.76998 10.9043 6.04105 11.1182C6.37021 11.021 6.21531 11.021 6.54447 11.1182C6.60256 10.9043 6.38958 10.5545 6.2734 10.4184C5.84743 10.3795 6.07978 10.4767 5.73126 10.2629C5.80871 10.088 6.04105 9.73811 6.04105 9.54373C5.92488 9.44655 5.82807 9.46598 5.73126 9.38824C5.61508 9.31049 5.61508 9.23274 5.51827 9.09667C5.15039 8.66905 4.9374 9.11611 4.76314 8.7468C4.70505 8.5913 4.68569 8.45524 4.58888 8.31918C4.53079 8.24143 4.45334 8.16368 4.39525 8.0665C4.41462 7.94987 4.43398 7.81381 4.4727 7.69719C2.92372 9.6798 1.78134 11.9928 1.16174 14.5197C1.23919 14.4031 1.25855 14.3448 1.41345 14.2864C1.52963 14.2281 1.68452 14.1698 1.78134 14.1115C1.74261 13.8588 1.54899 13.7811 1.54899 13.4701C1.8007 13.4118 1.66516 13.6644 1.85879 13.4506C1.97496 13.334 1.89751 13.2174 1.89751 13.0619C2.30412 12.9064 2.05241 13.0619 2.12986 12.712C2.34284 12.6537 3.1367 12.9064 2.94308 12.5176C2.90435 12.4593 2.86563 12.4399 2.8269 12.3621C2.74945 12.2066 2.78818 12.0706 2.88499 11.9734C3.02053 11.8373 3.07861 11.8762 3.27224 11.8373C3.40777 11.8179 3.4465 11.7985 3.4465 11.7596C3.46586 12.6343 3.54331 13.509 3.67885 14.4031C3.40777 14.5586 3.21415 14.8501 3.21415 15.2C2.90435 15.3555 2.59456 15.511 2.28476 15.6665C1.76197 15.9581 1.23919 16.2691 0.755132 16.6189C0.716407 16.9299 0.697045 17.2215 0.677682 17.5325C0.871306 17.5519 0.813219 17.5519 0.929393 17.6491C1.0262 17.7463 1.04557 17.7463 1.16174 17.824C1.31664 17.9407 1.4909 18.0962 1.76197 17.9795C1.72325 17.6297 1.25855 17.688 0.929393 17.3964L0.851943 17.3575C1.39409 16.9494 1.97496 16.5801 2.57519 16.2496C2.84627 16.0941 3.11734 15.9581 3.40777 15.822C3.56267 15.9969 3.7563 16.133 4.00801 16.1524C4.41462 17.9601 5.05357 19.7678 5.86679 21.5171C5.80871 21.5366 5.73126 21.5754 5.63444 21.5754C5.36337 21.2839 5.44082 20.9923 4.74378 20.934C4.80186 20.7202 4.95676 20.5258 4.91804 20.2537C4.82123 20.3703 4.84059 20.4481 4.68569 20.5453L4.53079 20.3898C4.45334 20.3315 4.39525 20.312 4.27908 20.312C3.98864 20.312 4.06609 20.4286 3.93056 20.6036C3.83375 20.5258 3.83375 20.4092 3.69821 20.3509C3.52395 20.2926 3.40777 20.3898 3.27224 20.4286L3.09798 20.0788C2.8269 20.1371 2.69137 20.312 2.65264 20.5453L2.59455 20.798C2.59455 20.798 2.57519 20.8174 2.57519 20.8368C2.34284 20.4092 2.672 20.1954 2.59455 19.9427C2.40093 19.9427 1.99432 20.2148 1.85879 20.3315C1.68452 20.5064 1.58771 20.8757 1.27792 20.8951C1.16174 20.8174 1.14238 20.7008 1.00684 20.623C0.813219 20.5258 0.871306 20.6036 0.716407 20.6813C1.16174 24.8798 3.03989 28.6506 5.86679 31.4885C6.02169 31.644 6.19595 31.8189 6.37021 31.9744C6.46703 31.8384 6.56384 31.7995 6.66065 31.644C6.81555 31.4107 6.75746 31.3719 6.85427 31.1192C6.95108 30.8471 7.06726 30.9831 7.2028 30.7304C7.39642 30.3417 7.45451 30.5361 7.55132 30.3417C7.66749 30.1084 7.41578 29.9335 7.57068 29.6614C8.03538 30.9831 8.65497 32.2271 9.44883 33.3545C9.11967 33.4517 8.79051 33.5488 8.46135 33.6266C8.71306 33.8015 8.96477 33.957 9.23584 34.132C9.44883 34.0737 9.66181 33.9959 9.89416 33.9376C10.1846 34.3069 10.5138 34.6762 10.8623 35.0066C11.54 35.3176 12.2176 35.6092 12.9341 35.8425C12.0434 35.2205 11.2689 34.5013 10.5912 33.7043C11.5206 33.3739 12.4694 32.9852 13.3987 32.5575C13.6117 32.7714 13.9022 32.9074 14.2313 32.9074C14.5024 32.9074 14.7347 32.8102 14.9284 32.6742C17.1938 34.3458 19.6915 35.6092 22.3248 36.3478C22.7895 36.2506 23.2542 36.134 23.7189 35.9785C20.6984 35.3371 17.8521 33.9765 15.3156 32.1105C15.3543 31.9939 15.3737 31.8578 15.3737 31.7412C15.3737 31.6829 15.3737 31.6051 15.3543 31.5468C15.4318 31.5079 15.5092 31.4691 15.5867 31.4107C17.3293 30.4389 19.0719 29.2726 20.7371 27.9898C20.7758 28.087 20.8339 28.2036 20.8726 28.3396C21.0469 28.709 21.1243 28.7284 21.3179 29.0005C21.7633 29.6614 20.8339 29.5448 21.6277 30.5555C21.9569 31.0026 21.7633 31.9939 22.3248 32.0716C22.5378 32.091 22.712 31.7995 23.0606 31.7217C23.4091 31.644 23.6802 31.8189 24.0287 31.6051C24.1642 31.5274 24.2223 31.4496 24.2998 31.333L24.7838 30.711C25.4809 29.9141 25.0355 30.2445 25.0355 29.5836C25.6358 29.1949 25.8875 29.7197 25.6164 28.6118C25.5002 28.1258 26.0617 27.6982 26.2941 27.5038C26.8943 27.0373 26.7781 26.7069 26.7781 26.1821C26.7781 25.7156 26.9524 25.91 26.6426 25.5018C26.5458 25.3852 26.4296 24.977 26.4102 24.7826C26.3715 24.491 26.4683 24.2772 26.6232 24.1023C27.0298 23.6941 27.2428 22.9361 27.9205 22.5862C28.0948 22.489 28.269 22.3141 28.3465 22.1197C28.482 21.7504 29.334 20.3703 29.0629 20.0982C28.9661 20.0593 28.8693 20.0593 28.7725 20.0788C29.0435 19.7289 29.3146 19.379 29.5857 19.0097C29.605 19.0097 29.6244 18.9903 29.6631 18.9903C29.7793 18.9514 29.8955 18.8737 30.031 18.7765C29.5857 22.7417 28.6176 26.6875 27.2041 30.1862C26.3715 32.266 25.384 34.1708 24.261 35.823C24.6289 35.7064 24.9774 35.5703 25.326 35.4343C26.2747 33.9182 27.1073 32.2465 27.8237 30.4389C29.3727 26.6097 30.3795 22.2558 30.7861 17.9018C31.0185 17.8824 31.2121 17.8046 31.3864 17.688C32.3351 18.2322 33.2064 18.7959 33.9809 19.4179C34.1165 19.7483 34.2907 20.0788 34.4456 20.3703C34.6392 20.7008 34.5812 21.109 34.7167 21.2839C34.9297 21.2645 35.0071 20.8951 35.2201 20.5453C35.588 20.9146 35.9172 21.3033 36.227 21.6921C36.285 21.3811 36.3238 21.0895 36.3625 20.7785C36.0914 20.4481 35.7816 20.1371 35.4718 19.8261C35.4718 19.7289 35.4525 19.6123 35.4331 19.4568C35.3557 18.9125 35.6461 18.9514 35.9365 18.6987C36.1301 18.5238 36.3044 18.2322 36.4787 18.0767C36.3044 13.3729 34.3294 9.11611 31.2315 6.00614C30.5344 5.30639 29.7793 4.66496 28.9854 4.10128C29.0435 4.27622 29.1016 4.47059 29.1403 4.66496C29.1403 4.70384 29.1403 4.74271 29.1403 4.80102L29.2372 4.85933C29.2952 5.09258 29.3533 5.32583 29.4114 5.53964C29.334 5.5202 29.2565 5.53964 29.1403 5.61739C28.8305 5.81176 28.7144 5.71458 28.3465 5.73402C28.2109 5.87008 28.1722 5.96726 28.056 6.04501C27.9399 5.79233 28.3465 5.42302 27.8431 5.44246C27.7463 5.44246 27.6301 5.48133 27.572 5.48133C27.5139 5.81176 27.6494 5.92839 27.6301 6.25882C27.4945 6.20051 27.5139 6.1422 27.4365 6.00614L26.7394 6.25882C26.72 6.4532 26.7781 6.62813 26.5651 6.64757C26.3715 6.66701 26.2747 6.55038 26.1392 6.49207C26.023 6.55038 25.9455 6.68644 25.7326 6.62813C25.7132 6.53095 25.7326 6.39489 25.6938 6.31714C25.6358 6.16164 25.6164 6.23939 25.5389 6.08389C25.8875 6.1422 25.9843 6.2977 26.4296 6.20051C26.6426 6.16164 27.0298 6.02558 27.146 5.87008L26.9137 5.65627C26.8362 5.57852 26.7588 5.48133 26.662 5.44246C26.4296 5.32583 26.0811 5.44246 25.81 5.44246C25.5196 5.42302 24.7838 5.07315 24.4934 4.93708C23.0799 4.35396 23.0025 4.60665 21.802 5.22864C21.0082 5.63683 21.2792 6.02558 20.253 6.43376C19.9239 6.56982 19.8851 6.51151 19.6334 6.74476C19.5366 6.84194 19.2849 7.07519 19.2268 7.23069C19.2075 7.30844 19.1494 8.41637 19.9239 8.33862C20.2917 8.31918 20.0981 8.0665 20.4273 7.93043C20.6209 8.37749 20.5628 8.53299 20.6403 8.86343C20.892 8.88286 21.6277 8.72737 21.7246 8.53299C21.8214 8.31918 21.7052 8.24143 21.9375 8.02762C22.4797 7.50281 21.9763 7.50281 21.802 7.36675C21.802 6.93913 22.4797 7.07519 22.7314 6.64757C22.8282 6.4532 22.7701 6.39489 22.8089 6.25882C22.9831 6.18107 23.351 6.18107 23.564 6.23939C23.5253 6.68644 22.4797 6.68644 22.6927 7.289C22.8476 7.73606 22.8863 7.81381 23.2929 7.63887C23.4865 7.56113 23.5446 7.58056 23.7576 7.58056C24.0868 7.58056 24.3578 7.50281 24.3772 7.87212C23.9706 7.98875 23.3897 7.85269 23.0412 8.00818C23.1574 8.20256 23.2735 8.08593 23.3316 8.35806C23.0799 8.43581 23.0025 8.29974 22.712 8.31918C22.4022 8.66905 22.5571 8.9023 22.4216 9.13555C22.2861 9.17442 22.1893 9.09667 22.015 9.0578C21.8601 9.03836 21.6858 9.07724 21.5309 9.07724C21.2018 9.09667 20.8533 9.2133 20.4854 9.13555C20.2724 8.84399 20.4079 8.82455 20.3692 8.47468C20.1175 8.41637 19.8658 8.49412 19.8077 8.7468C19.7109 9.11611 19.8851 9.15499 19.9819 9.34936C19.4979 9.32992 19.4785 9.2133 19.1494 9.54373C18.7234 10.0491 18.8589 9.81586 18.433 10.0297C18.5104 9.6798 18.3168 9.5243 18.1232 9.3688C17.8908 9.19386 17.8327 8.96061 17.6391 8.80511C17.7359 8.55243 17.9295 8.53299 17.9489 8.28031C17.8134 8.16368 17.1938 8.0665 17.1744 8.0665C16.9808 8.0665 16.9614 8.18312 16.9033 8.24143C16.7291 8.39693 16.7484 8.14425 16.5548 8.31918C16.3805 8.51355 16.6516 9.03836 17.4068 9.27161C17.2712 9.50486 16.8259 9.71867 16.7678 10.0491C16.9421 10.1269 16.9808 10.1074 17.1744 10.088C17.1744 10.1074 17.1744 10.1074 17.1744 10.1269L17.2325 10.3018C17.8134 9.89361 17.9683 10.5545 18.433 10.0297ZM13.8634 1.43836C10.8816 2.25473 8.20964 3.82916 6.06042 5.92839C6.07978 6.08389 6.1185 6.20051 6.17659 6.33657C6.2734 6.56982 6.2734 6.53095 6.52511 6.62813V6.66701C6.50575 6.86138 6.64129 7.07519 6.79619 7.19182L7.33833 7.65831C7.49323 7.63888 7.55132 7.58056 7.70622 7.52225C7.72558 7.63887 7.7643 7.7555 7.80303 7.83325C8.44199 7.89156 8.229 7.36675 8.34517 7.1335C8.42262 6.978 8.46135 7.09463 8.67433 7.03632V6.56982C8.79051 6.49207 8.79051 6.53095 8.92604 6.47263C9.06158 6.41432 9.08094 6.37545 9.17775 6.33657C9.37138 6.25882 9.68118 6.33657 9.91352 6.2977C10.0103 6.10332 10.1265 5.92839 10.1846 5.77289C10.5138 5.73402 10.8236 5.8312 11.1527 5.71458C11.2689 5.6757 11.3851 5.61739 11.5206 5.55908C11.7529 5.46189 11.7336 5.50077 12.0047 5.48133C11.9853 5.38414 11.9272 5.30639 11.8498 5.22864C11.7142 5.11202 11.6949 5.1509 11.54 5.07315L11.4819 4.6844C11.9853 4.85933 11.8304 4.82046 11.9853 5.24808C12.8179 5.44246 12.0821 4.58721 12.237 4.2179C12.4887 4.10128 12.6823 4.31509 12.9921 4.33453C13.0115 4.14015 12.9921 3.96522 13.0309 3.79028C13.089 3.5376 13.1664 3.57647 13.2245 3.40153C13.1277 3.36266 12.7404 3.30435 12.9921 2.89616C13.1277 2.70179 13.6698 2.15754 13.8441 2.06036C14.0764 1.94373 14.2313 1.88542 14.2507 1.57442C14.0764 1.49668 13.9603 1.47724 13.8634 1.43836ZM16.2063 13.7033C16.3612 13.7811 16.5548 13.6256 16.7097 13.8977C16.8259 14.0921 16.7291 14.0143 16.884 14.0921C17.0582 13.6256 17.0001 13.8588 17.4261 13.7811C17.6585 13.8005 17.9102 13.8199 18.1425 13.8394C17.8327 13.9754 17.4455 14.1698 17.2906 14.1698C16.5354 14.1893 16.884 14.1893 16.3612 14.5197C16.1869 14.6363 16.2063 14.5586 16.1095 14.7335C15.9933 14.9084 15.9352 15.1223 15.9159 15.3749C15.8965 15.7831 15.8771 15.7248 15.5673 15.8803C14.9671 16.1719 14.9865 16.133 14.7735 16.8327C14.5411 17.5714 14.3862 17.2992 14.6186 18.1545C14.696 18.446 14.7154 18.6015 14.5799 18.8542C14.5024 19.0292 14.3669 19.2818 14.2701 19.3985C14.5605 19.8844 14.2507 20.0593 14.5605 20.2926C14.8316 20.487 15.2188 20.487 15.3543 20.7591C15.4899 21.0506 15.5673 21.3811 15.761 21.6338C15.8771 21.7893 16.2257 22.1974 16.4774 22.2363C16.6129 21.867 16.7291 21.867 17.2712 21.9253C17.7553 21.9642 17.8908 21.9253 18.1038 21.6532C18.2974 21.4199 18.5298 21.3228 18.8977 21.4783C19.1494 21.5949 19.1881 21.8864 19.3236 22.1391C19.6528 22.1974 19.7496 22.0614 19.9432 21.9253C20.04 21.9642 20.253 22.1197 20.3305 22.2558C20.3111 22.5279 20.1562 22.4501 20.1175 22.8583C20.0981 23.0721 20.0013 23.4026 20.04 23.5581C20.3111 23.8496 20.3305 23.5192 20.5628 24.1412C20.9307 25.0936 20.8145 24.7437 20.8726 25.5018C20.892 25.7156 20.9501 25.7545 21.0082 25.91C21.163 26.3959 20.4854 26.3959 20.6209 27.3678C18.917 28.709 17.1357 29.8946 15.335 30.9054C15.2575 30.9442 15.1994 30.9831 15.122 31.022C14.909 30.8082 14.6186 30.6527 14.2894 30.6527C14.0764 30.6527 13.8634 30.711 13.6892 30.8276C12.237 29.5642 10.901 28.1258 9.73926 26.5708C9.89416 26.3376 10.2233 26.2598 10.4944 25.4824C10.7848 24.6077 10.4169 24.5299 9.93289 24.3161C9.7199 24.2189 9.75863 24.1217 9.58436 23.9857C9.19712 23.6747 9.17775 24.0829 8.65497 23.733C8.3839 23.5581 8.15155 23.3248 7.72558 23.3442L7.68685 23.422C7.59004 23.2276 7.47387 23.0527 7.37706 22.8583C7.37706 22.7806 7.35769 22.7417 7.33833 22.7028C7.35769 21.5754 7.45451 20.4481 7.62877 19.3207C7.84175 17.9212 8.15155 16.5217 8.55816 15.1417C8.59688 15.1417 8.63561 15.1417 8.6937 15.1417C9.33265 15.1417 9.83607 14.6363 9.85544 14.0143C10.9785 13.8394 12.1208 13.7422 13.3019 13.7033C14.212 13.645 15.1994 13.6644 16.2063 13.7033ZM18.0263 13.1396C18.007 13.023 18.007 13.0036 18.1619 12.8481C18.3555 12.6537 18.3749 12.6537 18.6847 12.6148C18.7428 12.4788 18.7815 12.2261 18.8396 12.1095C19.1687 12.09 19.2655 12.3038 19.5366 12.1678C19.7496 12.0706 19.8851 11.8179 20.1368 11.9734C20.4079 12.1483 20.1756 12.401 21.0082 12.7315C21.2405 12.8286 21.3567 12.8675 21.4535 13.1008C21.5503 13.3535 21.5309 13.5673 21.802 13.5867C21.8214 13.3146 21.7439 13.198 21.7246 12.9647L22.015 12.9064C21.9182 12.7509 21.802 12.6926 21.6665 12.5954C20.9501 12.1289 21.3179 12.265 20.9501 11.954C20.7758 11.7985 20.6984 11.8179 20.7371 11.5458C21.0275 11.5069 21.1824 11.7985 21.376 11.954C21.6665 12.1872 21.7439 12.265 21.9763 12.4593C22.1312 12.576 22.2473 12.887 22.4022 13.1396C22.4797 13.2757 22.5184 13.5867 22.5378 13.8394C21.0662 13.509 19.556 13.2757 18.0263 13.1396ZM22.9057 13.8977C22.925 13.8783 22.9444 13.8588 22.9637 13.8394C23.2929 13.5478 23.5253 13.4895 23.138 13.1202C23.0412 13.023 23.0993 13.1202 23.0412 13.0036C23.2348 12.9258 23.4478 12.6731 23.6608 12.712L23.7189 13.509C23.8351 13.5867 24.0287 13.6839 24.1642 13.7811C24.4159 13.9754 24.3772 13.9366 24.7064 13.9171C24.9387 13.8977 25.4421 14.1115 25.6358 13.7616C25.7132 13.6256 25.5777 13.645 25.8487 13.645C25.8487 13.956 25.7519 14.1893 25.6938 14.5197C25.6938 14.5586 25.6745 14.5974 25.6551 14.6363C25.5002 14.578 25.326 14.5391 25.1711 14.5003C24.4353 14.2476 23.6802 14.0532 22.9057 13.8977ZM25.326 15.2194C25.0162 15.2583 25.113 15.2972 24.9193 15.1611C24.7838 15.0639 24.6289 15.1223 24.4547 15.1611C24.0674 15.2777 24.0674 15.5887 23.777 15.6665C23.8544 15.3361 24.1642 15.3944 24.2223 15.0639C24.0093 14.9279 23.7189 15.0056 23.4478 14.9862C23.0993 14.9668 23.0799 14.7529 22.712 14.7918C22.6152 14.9862 22.4603 15.2777 22.3635 15.4527C21.9375 15.4916 21.4535 15.0834 21.2211 14.9668C21.0082 14.8696 20.8145 14.8501 20.6403 14.7335C20.4854 14.6169 20.2337 14.5391 20.2337 14.2864C20.4079 14.2476 20.5822 14.267 20.6209 14.1504C22.1118 14.3836 23.564 14.7141 24.9774 15.1223C25.113 15.1611 25.2291 15.1806 25.326 15.2194ZM27.5914 20.5841C27.5526 20.5841 27.4945 20.5647 27.4558 20.5453C27.3784 20.4675 27.4945 19.9816 26.933 19.4568C26.6232 19.1652 26.6813 18.9125 26.1973 18.5432C25.6551 18.1156 26.0811 17.7852 25.8487 17.2215C25.7132 16.8522 25.4809 16.4051 25.3647 16.0552L25.7519 15.9775C25.8487 16.133 25.9262 16.3274 25.9843 16.5023C26.023 16.5995 26.023 16.6578 26.0617 16.755C26.1392 17.0077 26.0811 16.8522 26.236 16.9688C26.3909 17.1049 26.4102 17.688 26.6813 17.999C26.9137 18.2517 27.1073 18.446 27.2041 18.9125C27.4365 19.9816 27.3009 20.1954 28.2884 19.7095C28.056 20.001 27.8237 20.2926 27.5914 20.5841ZM31.9285 16.8522C32.1996 16.8133 32.0834 16.7161 32.3351 16.6384C32.5288 16.7161 32.49 16.8133 32.6449 16.9688C32.8192 17.1632 32.916 17.0077 33.0709 17.2215C33.1483 17.5325 33.0322 17.6685 33.3032 17.9018C33.5356 17.8629 33.555 17.7269 33.7486 17.6491C33.7486 17.999 33.7292 18.1933 33.7486 18.446C33.1483 18.0184 32.5094 17.6102 31.8511 17.2215C31.8898 17.0854 31.9092 16.9688 31.9285 16.8522ZM8.17091 29.2921C8.3839 29.1754 8.98413 29.0977 9.02286 29.0588C9.11967 28.9422 9.13903 28.7867 9.21648 28.6312C9.29393 28.4563 9.37138 28.4174 9.44883 28.223C9.52628 28.0092 9.565 27.7565 9.58436 27.5233C10.6687 28.8839 11.8885 30.1668 13.1858 31.3136C13.1277 31.4691 13.0889 31.6246 13.0889 31.7995C13.0889 31.8772 13.0889 31.9356 13.1083 31.9939C12.1208 32.4604 11.1334 32.8491 10.1652 33.1795C9.29393 32.0327 8.63561 30.7304 8.17091 29.2921ZM3.46586 10.71C3.23351 10.7877 2.9818 10.8849 2.92372 10.9043C2.9818 10.4767 3.03989 10.4184 3.46586 10.3601H3.48522C3.46586 10.4962 3.46586 10.5934 3.46586 10.71ZM46.8375 10.5545V0.971867H50.2259V0.155499H42.5584V0.971867H45.9469V10.5545H46.8375ZM59.8103 10.5545V0.155499H58.9003V4.80102H52.3364V0.155499H51.4458V10.5545H52.3364V5.61739H58.9003V10.5545H59.8103ZM68.9493 10.5545V9.73811H63.2568V5.63683H68.8332V4.82046H63.2568V0.971867H68.9493V0.155499H62.3855V10.5545H68.9493ZM83.1613 10.5739L86.1237 0.174936H82.5998L81.2831 6.53095L79.7148 0.174936H77.3526L75.7842 6.53095L74.4482 0.174936H70.9437L73.9061 10.5739H77.1977L78.5337 4.6844L79.8697 10.5739H83.1613ZM91.5839 7.98875C90.0737 7.98875 89.1055 6.84194 89.1055 5.38414C89.1055 3.92634 90.093 2.77954 91.5839 2.77954C93.0942 2.77954 94.0623 3.92634 94.0623 5.38414C94.0623 6.82251 93.0942 7.98875 91.5839 7.98875ZM91.5839 10.7683C94.7787 10.7683 97.2571 8.5913 97.2571 5.38414C97.2571 2.17698 94.7787 0 91.5839 0C88.3891 0 85.9108 2.17698 85.9108 5.38414C85.9108 8.57187 88.3698 10.7683 91.5839 10.7683ZM103.414 4.54834H101.497V2.9156H103.414C103.937 2.9156 104.441 3.16829 104.441 3.73197C104.441 4.29565 103.937 4.54834 103.414 4.54834ZM107.635 10.5739L105.757 6.90026C106.59 6.49207 107.616 5.53964 107.616 3.75141C107.616 1.80767 106.319 0.174936 103.879 0.174936H98.3607V10.5739H101.497V7.289H102.64L104.073 10.5545H107.635V10.5739ZM115.961 10.5739V7.83325H112.031V0.174936H108.894V10.5739H115.961ZM121.847 7.83325H120.356V2.9156H121.867C123.551 2.9156 124.345 3.96522 124.345 5.36471C124.364 6.66701 123.435 7.83325 121.847 7.83325ZM121.867 10.5739C125.12 10.5739 127.54 8.68849 127.54 5.36471C127.54 2.04092 125.12 0.174936 121.847 0.174936H117.22V10.5739H121.867ZM105.079 37.5335L109.126 23.3442C111.314 30.0501 122.331 28.3202 122.331 30.4389C122.331 31.3913 121.015 31.7606 119.621 31.7606C116.329 31.7606 113.599 30.3611 111.779 28.6118L107.945 34.1125C110.54 36.4645 114.083 38 119.272 38C125.817 38 129.786 34.89 129.786 29.4864C129.786 20.3898 116.232 22.3724 116.232 20.0593C116.232 19.4373 116.639 18.9514 118.091 18.9514C120.395 18.9514 123.125 19.7483 125.255 21.3616L129.205 16.1136C126.436 13.8588 122.854 12.712 118.885 12.712L112.185 12.6731H103.763L100.607 27.8731L96.8505 12.6731H91.216L87.4597 27.8731L84.265 12.6731C75.8423 12.6731 67.4003 12.6731 58.9777 12.6731H58.9003V24.4327L50.284 12.6731H42.5972V37.5141H50.0904V24.9187L58.9971 37.2031L59.2101 37.5141H80.5474L78.6305 30.9637H66.4903V28.2425H77.7786L75.9391 21.6921H66.4903V19.243H77.7592L78.4369 21.6143L83.0645 37.5335H85.0395H90.8482L94.0429 23.4609L97.2377 37.5335H105.079ZM129.302 2.70179V0.447059H130.115V0.174936H128.179V0.447059H128.973V2.70179H129.302ZM133 2.70179V0.174936H132.555L131.761 2.0798L130.967 0.174936H130.522V2.72123H130.831V0.621995L131.683 2.70179H131.819L132.671 0.621995V2.70179H133ZM6.64129 21.556C6.69937 20.7785 6.77682 20.001 6.893 19.2235C7.10598 17.7657 7.43514 16.2885 7.88048 14.8696C7.74494 14.7529 7.64813 14.6169 7.57068 14.4419C6.7381 14.6363 5.92488 14.889 5.15039 15.1611C5.15039 15.2 5.15039 15.2194 5.15039 15.2583C5.15039 15.5887 4.97612 15.8997 4.70505 16.0747C5.13102 17.9212 5.78934 19.7678 6.64129 21.556Z" fill="white"/>
</svg>
