<svg width="100" height="50" viewBox="0 0 100 50" fill="none" xmlns="http://www.w3.org/2000/svg">
<path fill-rule="evenodd" clip-rule="evenodd" d="M0 0H32.6V50H0V0ZM7.60001 28.72V6.78003H2.76001V28.61C2.76001 40.1 8.48001 44.45 16.07 44.45C24.07 44.45 30.07 39.77 30.07 28.39V6.78003H25.23V28.72C25.23 36.91 21.73 40.54 16.23 40.54C11.28 40.54 7.60001 37.02 7.60001 28.72Z" fill="white"/>
<path fill-rule="evenodd" clip-rule="evenodd" d="M33.7998 0H66.3998V50H33.7998V0ZM36.2198 6.78003V43.84H40.7298V27.97C40.7298 21.81 40.6198 17.35 40.3498 12.68L40.5098 12.62C42.5707 16.8813 44.8849 21.0153 47.4398 25L59.2098 43.84H64.0498V6.78003H59.5398V22.3C59.5398 28.07 59.6498 32.53 60.0898 37.53H59.9798C58.0254 33.3902 55.8041 29.3817 53.3298 25.53L41.4498 6.78003H36.2198Z" fill="white"/>
<path fill-rule="evenodd" clip-rule="evenodd" d="M67.4004 0H100V50H67.4004V0ZM69.7404 6.78003V43.84H74.2204V28.01C74.2204 21.85 74.1104 17.39 73.8404 12.72L74.0004 12.66C76.0854 16.9093 78.4229 21.03 81.0004 25L92.7304 43.84H97.5704V6.78003H93.0604V22.24C93.0604 28.01 93.1704 32.47 93.6104 37.47L93.5004 37.53C91.548 33.3892 89.3265 29.3806 86.8504 25.53L75.0004 6.78003H69.7404Z" fill="white"/>
</svg>
