<svg width="76" height="10" viewBox="0 0 76 10" fill="none" xmlns="http://www.w3.org/2000/svg">
<rect x="9" y="10" width="9" height="10" transform="rotate(-180 9 10)" fill="#97A3CB" fill-opacity="0.3"/>
<rect x="17" y="10" width="3" height="10" transform="rotate(-180 17 10)" fill="#97A3CB" fill-opacity="0.3"/>
<rect x="23" y="10" width="1" height="10" transform="rotate(-180 23 10)" fill="#97A3CB" fill-opacity="0.3"/>
<rect x="35" y="10" width="7" height="10" transform="rotate(-180 35 10)" fill="#97A3CB" fill-opacity="0.3"/>
<rect x="43" y="10" width="3" height="10" transform="rotate(-180 43 10)" fill="#97A3CB" fill-opacity="0.3"/>
<rect x="56" y="10" width="8" height="10" transform="rotate(-180 56 10)" fill="#97A3CB" fill-opacity="0.3"/>
<rect x="62" y="10" width="1" height="10" transform="rotate(-180 62 10)" fill="#97A3CB" fill-opacity="0.3"/>
<rect x="68" y="10" width="1" height="10" transform="rotate(-180 68 10)" fill="#97A3CB" fill-opacity="0.3"/>
<rect x="76" y="10" width="3" height="10" transform="rotate(-180 76 10)" fill="#97A3CB" fill-opacity="0.3"/>
</svg>
